<svg id="Calque_1" data-name="Calque 1" xmlns="http://www.w3.org/2000/svg" viewBox="0 0 292.14 291.21"><defs><style>.cls-1{fill:#333232;}.cls-2{fill:none;stroke:#333232;stroke-miterlimit:10;stroke-width:0.5px;}.cls-3{fill:#f4b61c;}.cls-4{fill:#726f6f;}.cls-5{fill:#fcfafa;}.cls-6{fill:#f0b42f;}.cls-7{fill:#848080;}</style></defs><title>Fonderie</title><g id="Machine_fonderie" data-name="Machine fonderie"><path class="cls-1" d="M89.63,116v20.51h64.72v43.06h19.23v30.76h13.07v11.53h13.84v40s12.3,6.15,14.61,14.61h33.83s1.35-11.73,16.15-13.08c1.54-14.61,0-40,0-40l16.15-.77v-10l8.46-.77V180.34l20.38-.2V139l71.7-.57V116" transform="translate(-89.63 -116)"/><polygon class="cls-1" points="89.71 205.28 82.21 205.28 82.21 199.51 105.86 199.51 105.86 194.32 132.97 194.32 132.97 199.8 153.73 199.8 153.73 194.32 177.95 194.32 177.95 199.8 200.44 199.8 200.44 205.28 194.67 205.28 195.25 291.21 89.71 291.21 89.71 205.28"/><path class="cls-2" d="M179.34,210.33s-4.61,26.91,21.15,26.91" transform="translate(-89.63 -116)"/><path class="cls-2" d="M180.16,210.33s2.27,27.21,27.21,20.76" transform="translate(-89.63 -116)"/><rect class="cls-3" x="139.47" y="160.46" width="7.79" height="39.34"/></g><g id="Logo"><path class="cls-4" d="M194.31,150.07s-2.8-1.21-2.21,1.91c2.6,2.48,17.23,14,17.23,14s3.73,1.78,2.27-1.82C208.94,161.69,194.31,150.07,194.31,150.07Z" transform="translate(-89.63 -116)"/><path class="cls-4" d="M191.89,153S183,161.16,183,167.47s8.85,10.39,8.85,10.39,5.63,2.81,9.78-2.15,7.24-9.12,7.24-9.12l-5.56-4.22s-3.42,2.08-6.23-.07-1.48-6.23-1.48-6.23Z" transform="translate(-89.63 -116)"/><path class="cls-4" d="M195.7,149.83h8.91v10.4s-1.88,2.81-4,2.54-3.49,0-4.56-2.61C195.7,157.41,195.7,149.83,195.7,149.83Z" transform="translate(-89.63 -116)"/><circle class="cls-5" cx="110.52" cy="43.32" r="1.89"/><path class="cls-6" d="M204.86,158.26v-1.2s5.2.35,8.29,4,2.21,9.24,2.21,9.24l-1.36,12-1.33-.1-.13-8.34s.09-9.41-1.08-9.9A42.51,42.51,0,0,0,204.86,158.26Z" transform="translate(-89.63 -116)"/><g id="Texte"><path class="cls-7" d="M219.2,158.31h2.14v11.37H219.2Zm.78,0h6.69v2.06H220Zm0,4.79h5.83v2.07H220Z" transform="translate(-89.63 -116)"/><path class="cls-7" d="M229.37,169.38a2.78,2.78,0,0,1-1.2-1.2,4.19,4.19,0,0,1-.41-1.92v-1.32a4.12,4.12,0,0,1,.41-1.89,2.81,2.81,0,0,1,1.2-1.19,4,4,0,0,1,1.9-.42,3.94,3.94,0,0,1,1.89.42,2.71,2.71,0,0,1,1.2,1.19,4.12,4.12,0,0,1,.41,1.89v1.35a4.06,4.06,0,0,1-.41,1.89,2.68,2.68,0,0,1-1.2,1.2,3.94,3.94,0,0,1-1.89.42A4,4,0,0,1,229.37,169.38Zm2.9-2a1.46,1.46,0,0,0,.36-1.06v-1.35a1.45,1.45,0,0,0-.36-1.05,1.34,1.34,0,0,0-1-.38,1.32,1.32,0,0,0-1,.38,1.45,1.45,0,0,0-.35,1.05v1.35a1.46,1.46,0,0,0,.35,1.06,1.27,1.27,0,0,0,1,.38A1.31,1.31,0,0,0,232.27,167.35Z" transform="translate(-89.63 -116)"/><path class="cls-7" d="M236.73,161.56h2.14v8.12h-2.14Zm4.69,3.2a1.21,1.21,0,0,0-.34-.92,1.33,1.33,0,0,0-1-.33,1.22,1.22,0,0,0-.92.33,1.28,1.28,0,0,0-.33.94l-.16-1.8a3,3,0,0,1,.88-1.15,2.05,2.05,0,0,1,1.28-.39,2.41,2.41,0,0,1,2,.87,3.77,3.77,0,0,1,.7,2.44v4.93h-2.14Z" transform="translate(-89.63 -116)"/><path class="cls-7" d="M246.7,169.38a2.55,2.55,0,0,1-.94-1.2,5,5,0,0,1-.32-1.89V165a5.21,5.21,0,0,1,.32-1.92,2.63,2.63,0,0,1,.94-1.21,2.54,2.54,0,0,1,1.47-.42,2,2,0,0,1,1.19.39,2.84,2.84,0,0,1,.86,1.1l-.16,1.8a1.62,1.62,0,0,0-.14-.7,1.08,1.08,0,0,0-.42-.45,1.28,1.28,0,0,0-.65-.15,1.14,1.14,0,0,0-.93.41,1.82,1.82,0,0,0-.34,1.16v1.29a1.7,1.7,0,0,0,.34,1.12,1.13,1.13,0,0,0,.93.4,1.28,1.28,0,0,0,.65-.15,1,1,0,0,0,.42-.43,1.52,1.52,0,0,0,.14-.68l.11,1.86a2.25,2.25,0,0,1-.77,1,2.08,2.08,0,0,1-1.23.36A2.54,2.54,0,0,1,246.7,169.38Zm3.36-11.07h2.14v11.37h-2.14Z" transform="translate(-89.63 -116)"/><path class="cls-7" d="M256.62,169.8l-.83-.43a2.87,2.87,0,0,1-1.27-1.24,4,4,0,0,1-.44-2v-.91a4.61,4.61,0,0,1,.42-2.06,2.85,2.85,0,0,1,1.22-1.3,3.88,3.88,0,0,1,1.93-.45,3,3,0,0,1,1.82.54,3.23,3.23,0,0,1,1.16,1.54A6.84,6.84,0,0,1,261,166v.53h-5.55v-1.45h3.6l0-.19a1.79,1.79,0,0,0-.44-1.08,1.21,1.21,0,0,0-1-.39,1.6,1.6,0,0,0-1.2.46,1.89,1.89,0,0,0-.42,1.31v1a1.73,1.73,0,0,0,.46,1.29,1.79,1.79,0,0,0,1.3.45,2.6,2.6,0,0,0,.86-.15,2.52,2.52,0,0,0,.76-.44l1.4,1.25a4.66,4.66,0,0,1-1.42.89,4.31,4.31,0,0,1-1.6.32Z" transform="translate(-89.63 -116)"/><path class="cls-7" d="M262.9,161.56h2.3v8.12h-2.3Zm4.19,2a1.74,1.74,0,0,0-.53-.08,1.23,1.23,0,0,0-1,.42,1.71,1.71,0,0,0-.36,1.16L265,163a2.81,2.81,0,0,1,.87-1.13,1.92,1.92,0,0,1,1.18-.41,2.63,2.63,0,0,1,.91.16,2,2,0,0,1,.72.48l-1.25,1.74A1,1,0,0,0,267.09,163.59Z" transform="translate(-89.63 -116)"/><path class="cls-7" d="M269.62,158.31h2.14v2.14h-2.14Zm0,3.25h2.14v8.12h-2.14Z" transform="translate(-89.63 -116)"/><path class="cls-7" d="M276.07,169.8l-.84-.43a2.93,2.93,0,0,1-1.27-1.24,4.15,4.15,0,0,1-.44-2v-.91a4.61,4.61,0,0,1,.42-2.06,3,3,0,0,1,1.22-1.3,3.92,3.92,0,0,1,1.94-.45,3,3,0,0,1,1.82.54,3.21,3.21,0,0,1,1.15,1.54,6.62,6.62,0,0,1,.4,2.45v.53h-5.55v-1.45h3.59l0-.19a1.85,1.85,0,0,0-.44-1.08,1.24,1.24,0,0,0-.95-.39,1.57,1.57,0,0,0-1.2.46,1.85,1.85,0,0,0-.43,1.31v1a1.73,1.73,0,0,0,.47,1.29,1.79,1.79,0,0,0,1.3.45,2.5,2.5,0,0,0,.85-.15,2.57,2.57,0,0,0,.77-.44l1.4,1.25a4.71,4.71,0,0,1-1.43.89,4.22,4.22,0,0,1-1.59.32Z" transform="translate(-89.63 -116)"/></g></g></svg>