<svg id="Calque_1" data-name="Calque 1" xmlns="http://www.w3.org/2000/svg" viewBox="0 0 189.98 244.13"><defs><style>.cls-1{fill:#aaa9a7;}.cls-2{fill:none;stroke:#050505;stroke-miterlimit:10;}.cls-3{fill:#5b5949;}.cls-4{fill:#3a3936;}.cls-5{fill:#ead11c;}.cls-6{fill:#2b2926;}.cls-7{fill:#55371b;}</style></defs><title>Foreuse</title><g id="Foreuse_trou" data-name="Foreuse + trou"><g id="Foreuse"><path class="cls-1" d="M657.94,279.83l-2.4,16.32-62.88-1.92s-7.68-9.12,0-15.36Z" transform="translate(-589.25 -264.84)"/><path class="cls-1" d="M713.55,280.72l-.69,15.43h64.8s3.86-8.64-.54-15.69C762.08,280.46,713.55,280.72,713.55,280.72Z" transform="translate(-589.25 -264.84)"/><polygon class="cls-1" points="75.73 77.39 114.13 77.39 114.13 128.75 108.37 135.47 84.37 135.47 77.65 130.67 75.73 77.39"/><polyline class="cls-2" points="86.05 90.11 94.93 99.71 103.81 90.11"/><polyline class="cls-2" points="86.05 102.82 94.93 112.42 103.81 102.82"/><polyline class="cls-2" points="86.05 115.53 94.93 125.13 103.81 115.53"/><polygon class="cls-3" points="108.37 135.47 84.37 135.47 84.37 143.15 110.29 144.59 108.37 135.47"/><path class="cls-1" d="M672.14,423.13l22.61.05s9.47,1.58,4.35-15.18l-26,.16-2.33,1.1Z" transform="translate(-589.25 -264.84)"/><polygon class="cls-4" points="96.93 218.51 96.13 157.38 106.21 158.03 104.29 206.03 96.93 218.51"/><polygon class="cls-1" points="83.65 156.59 87.01 157.55 88.45 204.59 96.93 218.51 96.13 157.38 83.65 156.59"/><path class="cls-5" d="M659.91,267.2c8.34-2,25.21-4.38,48.91.61a7.82,7.82,0,0,1,6.19,6.76c2.23,21-5.31,67.66-11.63,67.66H665s-17.09-18.18-11.69-67.52A8.7,8.7,0,0,1,659.91,267.2Z" transform="translate(-589.25 -264.84)"/><polygon class="cls-1" points="82.33 18.35 82.33 31.31 107.53 31.31 107.53 14.03 82.33 14.03 82.33 18.35"/><rect class="cls-1" x="82.33" y="38.01" width="25.2" height="8.64"/><rect class="cls-6" x="21.27" y="14.44" width="7.2" height="15.49"/><rect class="cls-6" x="161.67" y="15.72" width="7.2" height="15.49"/></g><g id="trou_sol" data-name="trou sol"><path class="cls-7" d="M730.86,363.49l.86,5.37-.57,5.32L728,383.83s-9.43.66-.57,4.32-.57,8.31-.57,8.31l.86,3-1.43,2.66s4.29,3.65,4.57,7.31-1.71,6.65,1.18,7.65.54,9-1.46,9.31-4.29,8,0,13.64-2,12.63-4,12.63-2,.67-2,.67V458s4.58,6.32,0,5-2.28,2.66-2.28,2.66.57,8.31,0,9.31-2,6.65-4,4.66-4.57,4.65-4.57,4.65l-1.43.67s-4.58,6-6.29,3.32-2.29,4-4,7.32-6.86,1.33-10.29,0-2.86,4-6.58,3.32-4.86-5-4.86-5-4,2.66-4.86,1.66-4.29-2.33-7.72-3.66l-2.28-3H663.1l-2.58-2.66s-1.14-.67-2-4.33-.28-6-2.28-8.31-.58-4-2.29-8.31-2.58-3.33-3.72-8-6-4-8-7.65-.3-6-2.69-9.31-.47-6.32,0-7.32,3.25-7.65,1-9.31,0-9.64,1.72-11.64.57-5,.07-9.31,1.9-4.32,1.9-4.32l-1.9-5v-4.65s6.5-1,2.5-7-2-8.64-2-8.64v-9.7H608.52L610.21,509H759.85V363.49Z" transform="translate(-589.25 -264.84)"/><polygon class="cls-7" points="60.93 123.49 58.23 125.32 60.93 129.51 62.51 129.51 63.86 125.32 60.93 123.49"/><polygon class="cls-7" points="59.23 139.02 61.04 144.44 65.43 141.73 65.43 137.63 59.23 139.02"/><path class="cls-7" d="M648.48,428.14l-2.13,3.58,2.13,3.49s2,2.88,3.1-1S648.48,428.14,648.48,428.14Z" transform="translate(-589.25 -264.84)"/><polygon class="cls-7" points="59.23 156.75 61.04 156.75 62.51 156.75 59.8 160.42 59.23 156.75"/><path class="cls-7" d="M646.35,442.54l3.77-3.4s-.38,5,1.64,6-2.71,1.31-2.71,1.31Z" transform="translate(-589.25 -264.84)"/><path class="cls-7" d="M650.12,448.57l.17,3.92,2.82,1.84s2.7-1.81,1.57-3.79S654.79,446.73,650.12,448.57Z" transform="translate(-589.25 -264.84)"/><path class="cls-7" d="M651.58,455.9h6.93l-1.8,3.67v3.92l-4.45-.92s-1.63,1.45-.51-1.7S651.58,455.9,651.58,455.9Z" transform="translate(-589.25 -264.84)"/><path class="cls-7" d="M658.51,465.85s3.6-2.09,2-3.4,2.92,6.28,2.92,6.28H661Z" transform="translate(-589.25 -264.84)"/><path class="cls-7" d="M661,476.07s1.12,3.66,0,3.66h4.28l2.25-1.83-4.06-9.17-2.47,5.5Z" transform="translate(-589.25 -264.84)"/><polygon class="cls-7" points="83.22 217.77 87.95 217.77 90.58 222.22 88.4 223.27 86.9 223.27 85.25 222.22 83.22 217.77"/><path class="cls-7" d="M684.18,485.36h2.71s3.37-1.09,1.8,2.75-2.05,0-2.05,0Z" transform="translate(-589.25 -264.84)"/><polygon class="cls-7" points="133.86 123.42 136.56 125.26 133.86 129.45 132.28 129.45 130.93 125.26 133.86 123.42"/><polygon class="cls-7" points="135.55 138.96 133.75 144.38 129.35 141.67 129.35 137.57 135.55 138.96"/><path class="cls-7" d="M724.8,428.07l2.14,3.58-2.14,3.5s-2,2.88-3.1-1S724.8,428.07,724.8,428.07Z" transform="translate(-589.25 -264.84)"/><polygon class="cls-7" points="135.55 156.69 133.75 156.69 132.28 156.69 134.98 160.35 135.55 156.69"/><path class="cls-7" d="M726.94,442.48l-3.77-3.41s.38,5-1.64,6,2.7,1.31,2.7,1.31Z" transform="translate(-589.25 -264.84)"/><path class="cls-7" d="M723.17,448.5l-.17,3.93-2.82,1.83s-2.7-1.81-1.57-3.78S718.49,446.67,723.17,448.5Z" transform="translate(-589.25 -264.84)"/><path class="cls-7" d="M721.7,455.84h-6.92l1.8,3.66v3.93l4.45-.92s1.63,1.45.5-1.7S721.7,455.84,721.7,455.84Z" transform="translate(-589.25 -264.84)"/><path class="cls-7" d="M714.78,465.79s-3.61-2.1-2-3.41-2.93,6.29-2.93,6.29h2.48Z" transform="translate(-589.25 -264.84)"/><path class="cls-7" d="M712.3,476s-1.13,3.67,0,3.67H708l-2.25-1.83,4.05-9.17,2.48,5.5Z" transform="translate(-589.25 -264.84)"/><polygon class="cls-7" points="111.56 217.71 106.83 217.71 104.2 222.16 106.39 223.21 107.88 223.21 109.54 222.16 111.56 217.71"/><path class="cls-7" d="M689.1,485.3h-2.7s-3.37-1.09-1.8,2.75,2,0,2,0Z" transform="translate(-589.25 -264.84)"/></g></g></svg>