<svg id="Calque_1" data-name="Calque 1" xmlns="http://www.w3.org/2000/svg" viewBox="0 0 307.18 718.97"><defs><style>.cls-1,.cls-16{fill:#fcfcfc;}.cls-1,.cls-19{stroke:#3a3a3a;}.cls-1,.cls-12,.cls-14,.cls-15,.cls-19,.cls-2,.cls-20,.cls-23,.cls-3,.cls-6,.cls-8{stroke-miterlimit:10;}.cls-19,.cls-2{fill:#fdfdff;}.cls-2{stroke:#353434;}.cls-12,.cls-14,.cls-15,.cls-20,.cls-23,.cls-3,.cls-6{fill:none;}.cls-3{stroke:#302f2f;}.cls-4{fill:#3f4147;}.cls-5{fill:#3f3f3f;}.cls-6{stroke:#fcfafa;}.cls-7,.cls-8{fill:#424141;}.cls-8{stroke:#424141;}.cls-9{fill:#fff;}.cls-10{fill:#c9c8ca;}.cls-11{fill:#d1d1d1;}.cls-12{stroke:#f9f9f9;}.cls-12,.cls-15{stroke-width:0.5px;}.cls-13{fill:#f9f7fc;}.cls-14{stroke:#f9f7fc;}.cls-15{stroke:#707070;}.cls-17,.cls-18{fill:#9d9d9e;}.cls-18{opacity:0.4;}.cls-20{stroke:#39383a;}.cls-21{fill:#39383a;}.cls-22{fill:#afadb2;opacity:0.5;}.cls-23{stroke:#8b8b8e;}</style></defs><title>Fusée</title><path class="cls-1" d="M625.73,613.06h35a228,228,0,0,1,5.76-58.59H638.81S625.73,589.52,625.73,613.06Z" transform="translate(-524.28 -15.1)"/><path class="cls-1" d="M730,613.06h-35a228.25,228.25,0,0,0-5.75-58.59h27.72S730,589.52,730,613.06Z" transform="translate(-524.28 -15.1)"/><path class="cls-2" d="M729.1,571.14V556.49s22.32.7,65.57,10.46c5.58,1.4,33.65-14.91,36.27-20.14-.78-3.92-12.82-10.72-27.2-36.62-3.67-3.66-29.56-38.19-69.84-53.62C732.59,440.88,722.39,320,722.39,320S710.2,215.94,693.81,206a5.6,5.6,0,0,1-1.46-1.37c-3.42-4.43-16-18.76-29.08,1.86-14.38,22.76-20.66,70.88-20.66,70.88L621.16,454.22S584,474.62,566,494s-25.11,31.38-25.11,31.38S527,544.72,525.42,545,522,553.09,561,568.52c11.51-4.7,37.14-10.2,66.18-11.24l-1.31,14.38h34Z" transform="translate(-524.28 -15.1)"/><path class="cls-3" d="M673.48,511.92s-7,62.77,0,101.14h9s6.28-64.18,0-101.14Z" transform="translate(-524.28 -15.1)"/><path class="cls-4" d="M666.54,554.47h4.05s-2,45,2.89,56.49a10.33,10.33,0,0,0,1,2.62l-13.72-.52S660.49,571.73,666.54,554.47Z" transform="translate(-524.28 -15.1)"/><path class="cls-4" d="M688.72,554.47h-4.06s2,45-2.89,56.49a10.2,10.2,0,0,1-1,2.62l13.71-.52S694.76,571.73,688.72,554.47Z" transform="translate(-524.28 -15.1)"/><path class="cls-5" d="M656.77,555H699s-3.5-24.94-10.52-41.16a53.23,53.23,0,0,0-10.58-15.69C673.85,500.58,663.74,515.58,656.77,555Z" transform="translate(-524.28 -15.1)"/><path class="cls-6" d="M660.25,555s4.74-27.55,17.54-43.6c3.38-1.56,15.94,27.21,17.68,43.6" transform="translate(-524.28 -15.1)"/><path class="cls-4" d="M525.42,545l7.18-32.19,87.19-86.49,5.86-40.57.08-23.26L625.4,213.2s1-108.46,10.43-120.67c.35-3.14,16.6-60,42-77.43,1.29,2.1,28.49,21.63,41.4,76.38,1,2.1,12.29,33.14,10.9,98.7.35,65.57-.1,173-.1,173l6.29,64.17,86.49,85.1,8,32.09s-15.16-14.68-23.53-28.28-31.15-34.12-31.15-34.12-32.67-23.2-42.21-25.56C732.72,446,725.6,364,725.6,364S715,259.41,708.2,236.92s-16.74-42.07-30.34-42.07-26.78,31.7-32,63.61-11.41,80-11.41,80L628,389.33l-6.63,64.52S596,467.78,580.82,480.68s-30.34,31.24-30.34,31.24S540.07,532.6,525.42,545Z" transform="translate(-524.28 -15.1)"/><path class="cls-7" d="M734.73,430.25S723.85,411,728,319.57c-.5-65.42,2.29-107.85,2.08-126.94-.08-7.57-.12-11.4-.12-11.4l19.38-44.64,20.23,46V389.79s9.77,49.53,2.79,76.73Z" transform="translate(-524.28 -15.1)"/><path class="cls-8" d="M621,430.25s10.78-20,6.6-111.37c.7-91.38-1.86-137.65-1.86-137.65l-19.38-44.64-20.23,46V389.79s-9.77,49.53-2.79,76.73Z" transform="translate(-524.28 -15.1)"/><path class="cls-4" d="M652.69,279.3S662,263.26,679,264s23.62,9.07,25.71,15.35,5.23-20.23-18.83-26.51-33.14,17.09-33.14,17.09Z" transform="translate(-524.28 -15.1)"/><path class="cls-9" d="M653,268.92s7.52-11.5,24.86-9.76,17.69.7,25,12.21.35-16.4-20.93-18.14S653,268.92,653,268.92Z" transform="translate(-524.28 -15.1)"/><path class="cls-10" d="M674,250.68s5.93-19.54,0-33.83l9.07.34s-6.28,20.58,1.75,33.49Z" transform="translate(-524.28 -15.1)"/><path class="cls-4" d="M663,212.76a86,86,0,0,1,32.18,0l4.44,9.68s-28-7.59-40.54,0Z" transform="translate(-524.28 -15.1)"/><path class="cls-9" d="M729.42,200s17.06-11.48,39.15-.17a.63.63,0,0,1,.34.55v7.39s-19.62-10.46-39.49,0Z" transform="translate(-524.28 -15.1)"/><path class="cls-9" d="M624.43,200s-16.29-11-37.65-.91a3.26,3.26,0,0,0-1.84,3v1.61a2.69,2.69,0,0,0,3.62,2.53c6.58-2.45,21.15-6.18,35.87,1.57Z" transform="translate(-524.28 -15.1)"/><path class="cls-11" d="M606,137.87l-10.46,22.67s-5.58,18.13,6.63,15c3.13-.7,8.37.36,8.37.36S618.9,167.16,606,137.87Z" transform="translate(-524.28 -15.1)"/><path class="cls-11" d="M749.7,138l-10.46,22.67s-5.58,18.14,6.62,15c3.14-.7,8.37.36,8.37.36S762.6,167.34,749.7,138Z" transform="translate(-524.28 -15.1)"/><circle class="cls-4" cx="145.95" cy="325.84" r="3.55"/><circle class="cls-4" cx="163.43" cy="325.84" r="3.55"/><circle class="cls-4" cx="155.1" cy="312.59" r="3.55"/><path class="cls-12" d="M679.38,324.89c.18,1.22,0,5.67,0,5.67l-2.61-2.83h5.05l-2,2.83" transform="translate(-524.28 -15.1)"/><path class="cls-12" d="M687.71,338.15c.17,1.22,0,5.66,0,5.66L685.09,341h5.06l-2,2.83" transform="translate(-524.28 -15.1)"/><path class="cls-12" d="M670.23,338.15c.17,1.22,0,5.66,0,5.66L667.61,341h5.06l-2,2.83" transform="translate(-524.28 -15.1)"/><path class="cls-13" d="M630.14,120.26l.67-5.76s43-22.12,93.25-3.28a55.67,55.67,0,0,1,1.62,9S685.07,96.71,630.14,120.26Z" transform="translate(-524.28 -15.1)"/><path class="cls-14" d="M636.53,90.3s44.47-16.21,82.66,0" transform="translate(-524.28 -15.1)"/><path class="cls-11" d="M678.11,15.1s4.78,38.72-13,66.44h12.56S689,53.82,678.11,15.1Z" transform="translate(-524.28 -15.1)"/><path class="cls-11" d="M656.12,112.91h11s-9.94,13.08-5.49,43.43c.26,4.7,5.55,30.86-12,47.08-1.86,4.18-11.27,8.89-18.6,8.89,1.57-4.18,11.78.55,20.93-29.82a87.3,87.3,0,0,0,1-35.05C652.46,144.3,651.59,124.6,656.12,112.91Z" transform="translate(-524.28 -15.1)"/><line class="cls-15" x1="145.86" y1="331.67" x2="145.86" y2="448.33"/><line class="cls-15" x1="155.01" y1="320.16" x2="155.01" y2="480.77"/><line class="cls-15" x1="163.3" y1="331.67" x2="163.3" y2="448.33"/><polygon class="cls-16" points="60.52 409.53 60.52 435.34 100.28 398.37 100.28 365.59 60.52 409.53"/><polygon class="cls-16" points="246.59 404.38 246.59 430.18 206.83 393.21 206.83 360.43 246.59 404.38"/><path class="cls-17" d="M678.11,521.77s-7.22,16.48-3.61,31.65h6.26S685.34,535.44,678.11,521.77Z" transform="translate(-524.28 -15.1)"/><path class="cls-18" d="M651.94,648.47s-30.86,49.84-39.23,85.61H743s-15.7-52.65-39.76-85.61Z" transform="translate(-524.28 -15.1)"/><path class="cls-19" d="M686,663.1s6.28-11.85,4.89-22.32l9.76,3.49,1.31-.61,10.2,6.54s7.24-11.68,6.8-16.3c4.19,1.3,7.85,2.35,7.85,2.35s4.71-12.73,2.7-22.84c0-.79-103.75,0-103.75,0s-.27,16.82,2.61,22.32c1.83-.26,7.59-1.83,7.59-1.83l6.8,16.47,8.89-4.7,1.24.48s-1-2.84,11.58-4.15c1,2.36,2.88,19.19,5.75,21.1S686,663.1,686,663.1Z" transform="translate(-524.28 -15.1)"/><path class="cls-20" d="M633.45,613.58s3.93,18.42,11.8,34.79" transform="translate(-524.28 -15.1)"/><path class="cls-20" d="M640.9,613.06A162.7,162.7,0,0,0,652.47,646" transform="translate(-524.28 -15.1)"/><path class="cls-20" d="M637.14,613.58s3.93,17.92,11.8,33.84" transform="translate(-524.28 -15.1)"/><path class="cls-20" d="M647.52,613.58a156.4,156.4,0,0,0,9.89,29.95" transform="translate(-524.28 -15.1)"/><path class="cls-20" d="M644.5,613.58a155.59,155.59,0,0,0,9.89,29.95" transform="translate(-524.28 -15.1)"/><path class="cls-20" d="M649.91,613.58a153.49,153.49,0,0,0,9.53,29.15" transform="translate(-524.28 -15.1)"/><path class="cls-20" d="M653,613.06a153.27,153.27,0,0,0,9.53,29.14" transform="translate(-524.28 -15.1)"/><path class="cls-20" d="M655.6,613.06a152.84,152.84,0,0,0,9.52,29.14" transform="translate(-524.28 -15.1)"/><path class="cls-20" d="M723.53,613.84s-3.93,18.42-11.8,34.79" transform="translate(-524.28 -15.1)"/><path class="cls-20" d="M716.07,613.32a162.31,162.31,0,0,1-11.56,32.93" transform="translate(-524.28 -15.1)"/><path class="cls-20" d="M719.84,613.84s-3.94,17.92-11.8,33.85" transform="translate(-524.28 -15.1)"/><path class="cls-20" d="M709.46,613.84a156,156,0,0,1-9.9,29.95" transform="translate(-524.28 -15.1)"/><path class="cls-20" d="M712.48,613.84a156.4,156.4,0,0,1-9.89,29.95" transform="translate(-524.28 -15.1)"/><path class="cls-20" d="M707.06,613.84A153.06,153.06,0,0,1,697.54,643" transform="translate(-524.28 -15.1)"/><path class="cls-20" d="M704,613.32a152.84,152.84,0,0,1-9.52,29.14" transform="translate(-524.28 -15.1)"/><path class="cls-20" d="M701.38,613.32a153.27,153.27,0,0,1-9.53,29.14" transform="translate(-524.28 -15.1)"/><path class="cls-21" d="M698.78,614.37s-2.28,17.16-13.5,26.52c-1.76-3.81,3.48-25.91,3.48-25.91Z" transform="translate(-524.28 -15.1)"/><path class="cls-21" d="M657.08,614.59s2.82,17.08,14.32,26.08c1.64-3.86-4.28-25.79-4.28-25.79Z" transform="translate(-524.28 -15.1)"/><path class="cls-22" d="M670.73,647.42h14.95s-.59,10.84-4.58,12.24-6.26,0-6.26,0S669.46,655.72,670.73,647.42Z" transform="translate(-524.28 -15.1)"/><line class="cls-20" x1="153.83" y1="542.15" x2="153.83" y2="640.44"/><line class="cls-19" x1="43.43" y1="550.7" x2="43.43" y2="615.91"/><line class="cls-19" x1="81.45" y1="544.07" x2="81.45" y2="609.29"/><line class="cls-19" x1="75.68" y1="544.07" x2="75.68" y2="601.96"/><line class="cls-19" x1="49.25" y1="549.3" x2="49.25" y2="607.19"/><line class="cls-19" x1="56.23" y1="547.73" x2="56.23" y2="598.48"/><line class="cls-19" x1="69.48" y1="545.64" x2="69.48" y2="596.38"/><line class="cls-19" x1="262.93" y1="550.52" x2="262.93" y2="615.74"/><line class="cls-19" x1="224.92" y1="543.89" x2="224.92" y2="609.11"/><line class="cls-19" x1="230.69" y1="543.89" x2="230.69" y2="601.79"/><line class="cls-19" x1="257.11" y1="549.13" x2="257.11" y2="607.02"/><line class="cls-19" x1="250.14" y1="547.56" x2="250.14" y2="598.3"/><line class="cls-19" x1="236.89" y1="545.46" x2="236.89" y2="596.21"/><line class="cls-23" x1="164.9" y1="648.85" x2="164.9" y2="718.97"/><line class="cls-23" x1="143.36" y1="648.85" x2="143.36" y2="718.97"/></svg>