<svg id="Calque_1" data-name="Calque 1" xmlns="http://www.w3.org/2000/svg" xmlns:xlink="http://www.w3.org/1999/xlink" viewBox="0 0 243 162.5"><defs><style>.cls-1{fill:url(#Dégradé_sans_nom_41);}.cls-2{fill:#545252;}.cls-3{fill:url(#Dégradé_sans_nom_40);}.cls-4,.cls-5,.cls-6{fill:none;}.cls-4,.cls-5,.cls-7{stroke:#545252;}.cls-4,.cls-5,.cls-6,.cls-7{stroke-miterlimit:10;}.cls-4{stroke-width:3px;}.cls-5,.cls-6{stroke-width:2px;}.cls-6{stroke:#8e8b8b;}.cls-7{fill:#f9f7f7;}</style><linearGradient id="Dégradé_sans_nom_41" x1="4.92" y1="128.81" x2="74.97" y2="103.31" gradientUnits="userSpaceOnUse"><stop offset="0.03" stop-color="#fff"/><stop offset="0.17" stop-color="#c7ffff"/><stop offset="0.34" stop-color="#8bffff"/><stop offset="0.5" stop-color="#59ffff"/><stop offset="0.65" stop-color="#3ff"/><stop offset="0.79" stop-color="#17ffff"/><stop offset="0.91" stop-color="#06ffff"/><stop offset="1" stop-color="aqua"/></linearGradient><linearGradient id="Dégradé_sans_nom_40" x1="141.44" y1="113.32" x2="245.59" y2="53.19" gradientUnits="userSpaceOnUse"><stop offset="0.04" stop-color="#fff"/><stop offset="0.15" stop-color="#c4ffff"/><stop offset="0.26" stop-color="#91ffff"/><stop offset="0.37" stop-color="#64ffff"/><stop offset="0.49" stop-color="#40ffff"/><stop offset="0.6" stop-color="#24ffff"/><stop offset="0.71" stop-color="#10ffff"/><stop offset="0.82" stop-color="#04ffff"/><stop offset="0.93" stop-color="aqua"/></linearGradient></defs><title>Grand satellite</title><g id="Grand_satellite" data-name="Grand satellite"><polygon class="cls-1" points="1.74 104.58 68.81 86.38 76.25 128.23 8.2 137.82 1.74 104.58"/><path class="cls-2" d="M628.62,390.75l6.88,38.71-65.1,9.17-5.92-30.47,64.14-17.41M631,387l-70,19,7,36,71-10-8-45Z" transform="translate(-561 -302.5)"/><path class="cls-2" d="M650,380l18-4,4-1a3.53,3.53,0,0,1,4,1c1,1,3,11,3,11l5,27,1,6s0,4-6,4c-1,0,0,6,0,6s10,1,8,5v2s0,5-7,10v6l-4,12-6-7,1-1-2-1-3-3v-3l7-1,1-2-10,1s-8-4-10-10c0-1-2-5,19-7,1-1-1-1-1-1l-12,1s-3-1,0-3c1,0,14-3,14-3l1-1s-20,4-22,3c0-1-1-3-3-15-2-9-5-21-5-21v-6S645,381,650,380Z" transform="translate(-561 -302.5)"/><polygon class="cls-3" points="134.73 66.64 230.78 40.39 241.28 106.23 145.2 119.81 134.73 66.64"/><path class="cls-2" d="M790.56,344.78l10,62.68-93.17,13.17-9.92-50.41,93.09-25.44M793,341l-99,27.06L705,424l99-14-11-69Z" transform="translate(-561 -302.5)"/><line class="cls-4" x1="69.5" y1="93" x2="86.5" y2="89"/><line class="cls-4" x1="75.5" y1="120" x2="92.5" y2="116"/><line class="cls-4" x1="117.5" y1="82" x2="135.5" y2="78"/><line class="cls-4" x1="117.5" y1="112" x2="142.5" y2="107"/><line class="cls-5" x1="11.49" y1="102.62" x2="18.03" y2="137.4"/><path class="cls-6" d="M583,437" transform="translate(-561 -302.5)"/><path class="cls-6" d="M576.46,402.22" transform="translate(-561 -302.5)"/><line class="cls-5" x1="23.14" y1="100.17" x2="29.68" y2="134.95"/><path class="cls-6" d="M597,435" transform="translate(-561 -302.5)"/><path class="cls-6" d="M590.46,400.22" transform="translate(-561 -302.5)"/><line class="cls-5" x1="35.16" y1="96.21" x2="41.89" y2="132.54"/><path class="cls-6" d="M611,435" transform="translate(-561 -302.5)"/><path class="cls-6" d="M603.46,396.22" transform="translate(-561 -302.5)"/><line class="cls-5" x1="46.45" y1="92.06" x2="53.99" y2="130.84"/><line class="cls-5" x1="58.49" y1="90.47" x2="66.02" y2="129.25"/><line class="cls-5" x1="2.54" y1="113.49" x2="71.54" y2="97.49"/><line class="cls-5" x1="5" y1="122.5" x2="73.11" y2="108.01"/><line class="cls-5" x1="7.68" y1="131.34" x2="75" y2="118.5"/><line class="cls-5" x1="135.88" y1="79.79" x2="233.88" y2="55.79"/><line class="cls-5" x1="139.7" y1="94.09" x2="236.81" y2="74.79"/><line class="cls-5" x1="142.02" y1="108.59" x2="240.14" y2="91.3"/><line class="cls-5" x1="148" y1="63.5" x2="158" y2="118.5"/><line class="cls-5" x1="163.27" y1="58.72" x2="173.27" y2="115.72"/><line class="cls-5" x1="178.98" y1="54.23" x2="188.98" y2="114.23"/><line class="cls-5" x1="195.97" y1="50.79" x2="205.97" y2="110.79"/><line class="cls-5" x1="213.02" y1="45.34" x2="223" y2="108.5"/><path class="cls-2" d="M664,379l-1-1-16,2v-5l17-6v-1l-22,5a14.52,14.52,0,0,1-1-13s1.5-3.5,7.5-3.5a38.72,38.72,0,0,0,10-3h-12l-1-1s9-1,11-3c0-1-18,4-18,0-2-3-4-4,4-9v-2s-18,4-23-11c-1-1,12-5,12-5l13-12-1-8h2l1,7,17,5h12s3,12-16,21v1s15,3,1,11v5s9,1,9,5c1,4,2,10,2,10h-5l1,9Z" transform="translate(-561 -302.5)"/><polygon class="cls-7" points="83.86 9.38 74.14 20.64 85.06 17.36 83.86 9.38"/><polygon class="cls-7" points="85.84 8.84 87.24 16.79 102.06 13.88 85.84 8.84"/></g></svg>