<svg id="Calque_1" data-name="Calque 1" xmlns="http://www.w3.org/2000/svg" viewBox="0 0 135.72 154.69"><defs><style>.cls-1{fill:#565656;}.cls-2{fill:#fcfcfc;}</style></defs><title>Immeubles_2</title><g id="Immeubles2"><polygon class="cls-1" points="6.93 148.13 0 148.13 0 154.69 135.72 154.69 135.72 148.13 130.61 148.13 131.34 55.09 83.18 29.55 84.28 60.2 52.54 60.56 52.54 0 6.2 26.63 6.93 148.13"/><rect class="cls-2" x="11.23" y="35.21" width="7.66" height="8.03"/><rect class="cls-2" x="25.61" y="51.99" width="7.66" height="8.03"/><rect class="cls-2" x="11.23" y="51.99" width="7.66" height="8.03"/><rect class="cls-2" x="39.47" y="51.99" width="7.66" height="8.03"/><rect class="cls-2" x="25.61" y="35.21" width="7.66" height="8.03"/><rect class="cls-2" x="39.47" y="35.21" width="7.66" height="8.03"/><rect class="cls-2" x="11.23" y="67.13" width="7.66" height="8.03"/><rect class="cls-2" x="11.48" y="82.27" width="7.66" height="8.03"/><rect class="cls-2" x="25.87" y="82.27" width="7.66" height="8.03"/><rect class="cls-2" x="39.73" y="82.27" width="7.66" height="8.03"/><rect class="cls-2" x="25.87" y="67.13" width="7.66" height="8.03"/><rect class="cls-2" x="39.32" y="67.13" width="7.66" height="8.03"/><rect class="cls-2" x="11.74" y="97.41" width="7.66" height="8.03"/><rect class="cls-2" x="25.87" y="97.41" width="7.66" height="8.03"/><rect class="cls-2" x="39.99" y="97.41" width="7.66" height="8.03"/><rect class="cls-2" x="11.36" y="112.55" width="7.66" height="8.03"/><rect class="cls-2" x="25.74" y="112.55" width="7.66" height="8.03"/><rect class="cls-2" x="39.6" y="112.55" width="7.66" height="8.03"/><rect class="cls-2" x="11.61" y="127.7" width="7.66" height="8.03"/><rect class="cls-2" x="25.74" y="127.7" width="7.66" height="8.03"/><rect class="cls-2" x="39.86" y="127.7" width="7.66" height="8.03"/><rect class="cls-2" x="89.5" y="67.13" width="7.66" height="8.03"/><rect class="cls-2" x="89.76" y="82.27" width="7.66" height="8.03"/><rect class="cls-2" x="104.14" y="82.27" width="7.66" height="8.03"/><rect class="cls-2" x="118" y="82.27" width="7.66" height="8.03"/><rect class="cls-2" x="104.14" y="67.13" width="7.66" height="8.03"/><rect class="cls-2" x="117.59" y="67.13" width="7.66" height="8.03"/><rect class="cls-2" x="90.02" y="97.41" width="7.66" height="8.03"/><rect class="cls-2" x="104.14" y="97.41" width="7.66" height="8.03"/><rect class="cls-2" x="118.26" y="97.41" width="7.66" height="8.03"/><rect class="cls-2" x="89.63" y="112.55" width="7.66" height="8.03"/><rect class="cls-2" x="104.01" y="112.55" width="7.66" height="8.03"/><rect class="cls-2" x="117.87" y="112.55" width="7.66" height="8.03"/><rect class="cls-2" x="89.89" y="127.7" width="7.66" height="8.03"/><rect class="cls-2" x="104.01" y="127.7" width="7.66" height="8.03"/><rect class="cls-2" x="118.13" y="127.7" width="7.66" height="8.03"/></g></svg>