<svg id="Calque_1" data-name="Calque 1" xmlns="http://www.w3.org/2000/svg" viewBox="0 0 175.85 156.34"><defs><style>.cls-1{fill:#565656;}.cls-2{fill:#fcfcfc;}</style></defs><title>Immeubles_1</title><g id="Immeubles"><polygon class="cls-1" points="9.12 148.49 0 148.49 0 156.34 126.97 156.34 175.85 156.34 175.85 148.49 166.19 148.49 166.19 56.37 119.3 31.19 119.49 148.67 110.91 148.49 110.73 0 63.48 26.45 63.48 148.13 56.19 148.13 56.55 55.27 9.3 31.19 9.12 148.49"/><rect class="cls-2" x="125.22" y="64.91" width="7.66" height="8.03"/><rect class="cls-2" x="125.22" y="81.69" width="7.66" height="8.03"/><rect class="cls-2" x="139.34" y="96.84" width="7.66" height="8.03"/><rect class="cls-2" x="125.22" y="96.84" width="7.66" height="8.03"/><rect class="cls-2" x="153.46" y="96.84" width="7.66" height="8.03"/><rect class="cls-2" x="139.6" y="81.69" width="7.66" height="8.03"/><rect class="cls-2" x="153.46" y="81.69" width="7.66" height="8.03"/><rect class="cls-2" x="139.6" y="64.91" width="7.66" height="8.03"/><rect class="cls-2" x="153.46" y="64.91" width="7.66" height="8.03"/><rect class="cls-2" x="125.48" y="111.98" width="7.66" height="8.03"/><rect class="cls-2" x="125.48" y="128.76" width="7.66" height="8.03"/><rect class="cls-2" x="139.86" y="128.76" width="7.66" height="8.03"/><rect class="cls-2" x="153.72" y="128.76" width="7.66" height="8.03"/><rect class="cls-2" x="139.86" y="111.98" width="7.66" height="8.03"/><rect class="cls-2" x="153.72" y="111.98" width="7.66" height="8.03"/><rect class="cls-2" x="69.04" y="35.66" width="7.66" height="8.03"/><rect class="cls-2" x="69.04" y="52.45" width="7.66" height="8.03"/><rect class="cls-2" x="83.42" y="69.23" width="7.66" height="8.03"/><rect class="cls-2" x="69.04" y="69.23" width="7.66" height="8.03"/><rect class="cls-2" x="97.28" y="69.23" width="7.66" height="8.03"/><rect class="cls-2" x="83.42" y="52.45" width="7.66" height="8.03"/><rect class="cls-2" x="97.28" y="52.45" width="7.66" height="8.03"/><rect class="cls-2" x="83.42" y="35.66" width="7.66" height="8.03"/><rect class="cls-2" x="97.28" y="35.66" width="7.66" height="8.03"/><rect class="cls-2" x="69.04" y="84.37" width="7.66" height="8.03"/><rect class="cls-2" x="69.3" y="99.51" width="7.66" height="8.03"/><rect class="cls-2" x="83.68" y="99.51" width="7.66" height="8.03"/><rect class="cls-2" x="97.54" y="99.51" width="7.66" height="8.03"/><rect class="cls-2" x="83.68" y="84.37" width="7.66" height="8.03"/><rect class="cls-2" x="97.13" y="84.37" width="7.66" height="8.03"/><rect class="cls-2" x="69.56" y="113.25" width="7.66" height="8.03"/><rect class="cls-2" x="69.56" y="130.04" width="7.66" height="8.03"/><rect class="cls-2" x="83.94" y="130.04" width="7.66" height="8.03"/><rect class="cls-2" x="97.8" y="130.04" width="7.66" height="8.03"/><rect class="cls-2" x="83.94" y="113.25" width="7.66" height="8.03"/><rect class="cls-2" x="97.8" y="113.25" width="7.66" height="8.03"/><rect class="cls-2" x="14.05" y="65.09" width="7.66" height="8.03"/><rect class="cls-2" x="28.43" y="81.88" width="7.66" height="8.03"/><rect class="cls-2" x="14.05" y="81.88" width="7.66" height="8.03"/><rect class="cls-2" x="42.29" y="81.88" width="7.66" height="8.03"/><rect class="cls-2" x="28.43" y="65.09" width="7.66" height="8.03"/><rect class="cls-2" x="42.29" y="65.09" width="7.66" height="8.03"/><rect class="cls-2" x="14.05" y="97.02" width="7.66" height="8.03"/><rect class="cls-2" x="14.3" y="112.16" width="7.66" height="8.03"/><rect class="cls-2" x="28.69" y="112.16" width="7.66" height="8.03"/><rect class="cls-2" x="42.55" y="112.16" width="7.66" height="8.03"/><rect class="cls-2" x="28.69" y="97.02" width="7.66" height="8.03"/><rect class="cls-2" x="42.14" y="97.02" width="7.66" height="8.03"/><rect class="cls-2" x="14.3" y="127.18" width="7.66" height="8.03"/><rect class="cls-2" x="28.69" y="127.18" width="7.66" height="8.03"/><rect class="cls-2" x="42.81" y="127.18" width="7.66" height="8.03"/></g></svg>