<svg id="Calque_1" data-name="Calque 1" xmlns="http://www.w3.org/2000/svg" xmlns:xlink="http://www.w3.org/1999/xlink" viewBox="0 0 148.73 98.19"><defs><style>.cls-1{fill:url(#Dégradé_sans_nom_41);}.cls-2{fill:#545252;}.cls-3{fill:url(#Dégradé_sans_nom_40);}.cls-4,.cls-5,.cls-6{fill:none;}.cls-4,.cls-5,.cls-7{stroke:#545252;}.cls-4,.cls-5,.cls-6,.cls-7{stroke-miterlimit:10;}.cls-4{stroke-width:3px;}.cls-5,.cls-6{stroke-width:2px;}.cls-6{stroke:#8e8b8b;}.cls-7{fill:#f9f7f7;}</style><linearGradient id="Dégradé_sans_nom_41" x1="526.19" y1="473.96" x2="569.17" y2="458.31" gradientTransform="translate(-623.09 -230.43) rotate(-14.96)" gradientUnits="userSpaceOnUse"><stop offset="0.03" stop-color="#fff"/><stop offset="0.17" stop-color="#c7ffff"/><stop offset="0.34" stop-color="#8bffff"/><stop offset="0.5" stop-color="#59ffff"/><stop offset="0.65" stop-color="#3ff"/><stop offset="0.79" stop-color="#17ffff"/><stop offset="0.91" stop-color="#06ffff"/><stop offset="1" stop-color="aqua"/></linearGradient><linearGradient id="Dégradé_sans_nom_40" x1="612.31" y1="464.06" x2="676.69" y2="426.89" gradientTransform="translate(-623.09 -230.43) rotate(-14.96)" gradientUnits="userSpaceOnUse"><stop offset="0.04" stop-color="#fff"/><stop offset="0.15" stop-color="#c4ffff"/><stop offset="0.26" stop-color="#91ffff"/><stop offset="0.37" stop-color="#64ffff"/><stop offset="0.49" stop-color="#40ffff"/><stop offset="0.6" stop-color="#24ffff"/><stop offset="0.71" stop-color="#10ffff"/><stop offset="0.82" stop-color="#04ffff"/><stop offset="0.93" stop-color="aqua"/></linearGradient></defs><title>Moyen satellite</title><g id="Moyen_satellite" data-name="Moyen satellite"><polygon class="cls-1" points="1.96 77.98 38.9 56.53 49.75 79.76 10.85 96.25 1.96 77.98"/><path class="cls-2" d="M646.45,393.36l9.5,20.33L619.8,429l-7.66-15.73,34.31-19.93m1.33-4.24-39.56,23,10.13,20.8L660,415.24l-12.21-26.12Z" transform="translate(-608.22 -334.71)"/><path class="cls-2" d="M658.22,381.76l10.32-5.37,2.28-1.26a2.21,2.21,0,0,1,2.6,0c.77.44,3.61,6.21,3.61,6.21l7.45,15.64,1.58,3.49s.66,2.44-3,3.42c-.61.16,1,3.65,1,3.65s6.25-1,5.69,1.75l.32,1.22s.82,3-2.64,7.23l1,3.66-.48,8-4.8-3.29.45-.77-1.38-.28-2.32-1.34-.49-1.83,4.1-1.75.29-1.38-5.93,2.24s-5.53-1.14-7.73-4.47c-.16-.61-2-2.72,10.44-7.36.45-.77-.77-.45-.77-.45l-7.15,2.57s-2-.12-.49-1.83c.61-.16,8-4.11,8-4.11l.44-.77s-11.53,5.69-12.92,5.41c-.16-.61-1.09-1.67-4.27-8.65-2.68-5.16-6.46-12-6.46-12l-1-3.65S655.34,383.18,658.22,381.76Z" transform="translate(-608.22 -334.71)"/><polygon class="cls-3" points="76.82 33.21 130.1 2.14 146.74 39.47 91.41 62.97 76.82 33.21"/><path class="cls-2" d="M737.64,339,753,373.39l-52.62,22.35L687,368.5,737.64,339m1.37-4.27-55.93,32.61,15.82,32.29L757,375,739,334.71Z" transform="translate(-608.22 -334.71)"/><line class="cls-4" x1="40.64" y1="59.67" x2="50.35" y2="54.47"/><line class="cls-4" x1="48.7" y1="75.15" x2="58.4" y2="69.94"/><line class="cls-4" x1="68.1" y1="45.15" x2="78.42" y2="39.78"/><line class="cls-4" x1="72.99" y1="63.43" x2="87.41" y2="56.32"/><line class="cls-5" x1="6.86" y1="74.98" x2="16.51" y2="95.11"/><path class="cls-6" d="M626.68,427.4" transform="translate(-608.22 -334.71)"/><path class="cls-6" d="M617,407.27" transform="translate(-608.22 -334.71)"/><line class="cls-5" x1="13.56" y1="71.59" x2="23.21" y2="91.72"/><path class="cls-6" d="M634.88,423.9" transform="translate(-608.22 -334.71)"/><path class="cls-6" d="M625.23,403.77" transform="translate(-608.22 -334.71)"/><line class="cls-5" x1="20.24" y1="67.22" x2="30.25" y2="88.26"/><path class="cls-6" d="M643.41,421.62" transform="translate(-608.22 -334.71)"/><path class="cls-6" d="M632.51,399.22" transform="translate(-608.22 -334.71)"/><line class="cls-5" x1="26.44" y1="62.85" x2="37.35" y2="85.26"/><line class="cls-5" x1="33.52" y1="59.92" x2="44.43" y2="82.33"/><line class="cls-5" x1="3.17" y1="83.06" x2="42.62" y2="62.08"/><line class="cls-5" x1="6.14" y1="88.15" x2="45.29" y2="68.23"/><line class="cls-5" x1="9.22" y1="93.1" x2="48.15" y2="74.32"/><line class="cls-5" x1="78.95" y1="40.82" x2="134.76" y2="10.23"/><line class="cls-5" x1="83.6" y1="48.91" x2="139.64" y2="21.33"/><line class="cls-5" x1="87.37" y1="57.37" x2="144.35" y2="30.85"/><line class="cls-5" x1="83.68" y1="28.91" x2="98.73" y2="60.8"/><line class="cls-5" x1="92.2" y1="23.51" x2="107.58" y2="56.62"/><line class="cls-5" x1="101.04" y1="18.22" x2="116.91" y2="53.15"/><line class="cls-5" x1="110.84" y1="13.35" x2="126.7" y2="48.29"/><line class="cls-5" x1="120.34" y1="7.26" x2="136.71" y2="44.12"/><path class="cls-2" d="M666.59,378.87l-.77-.45-9.43,3.83-.81-3.05,9.38-6.43-.16-.61-12.59,6.63a9.15,9.15,0,0,1-2.73-7.76s.35-2.37,4-3.35a24.42,24.42,0,0,0,5.61-3.46l-7.32,2-.77-.45s5.32-2.07,6.22-3.62c-.17-.61-10.32,5.37-11,2.93-1.71-1.5-3.09-1.78,1-6.13l-.33-1.22s-10.31,5.37-15.8-3c-.77-.45,6.5-5,6.5-5l6-9.43-1.91-4.71,1.22-.33,1.75,4.11,11.17.27,7.32-1.95s3.78,6.82-6.33,15.4l.16.61s9.63-.61,2.4,6.54l.81,3.05s5.65-.86,6.3,1.58c1.26,2.28,2.85,5.77,2.85,5.77l-3,.81,2.08,5.32Z" transform="translate(-608.22 -334.71)"/><polygon class="cls-7" points="35.77 6.38 31.69 14.82 37.81 11.04 35.77 6.38"/><polygon class="cls-7" points="36.9 5.72 39.04 10.34 47.6 6.15 36.9 5.72"/></g></svg>