<svg id="Calque_1" data-name="Calque 1" xmlns="http://www.w3.org/2000/svg" xmlns:xlink="http://www.w3.org/1999/xlink" viewBox="0 0 113.5 86.5"><defs><style>.cls-1{fill:url(#Dégradé_sans_nom_41);}.cls-2{fill:#545252;}.cls-3{fill:url(#Dégradé_sans_nom_40);}.cls-4,.cls-5,.cls-6{fill:none;}.cls-4,.cls-5,.cls-7{stroke:#545252;}.cls-4,.cls-5,.cls-6,.cls-7{stroke-miterlimit:10;}.cls-4{stroke-width:3px;}.cls-5,.cls-6{stroke-width:2px;}.cls-6{stroke:#8e8b8b;}.cls-7{fill:#f9f7f7;}</style><linearGradient id="Dégradé_sans_nom_41" x1="680.65" y1="186.46" x2="712.05" y2="175.03" gradientTransform="matrix(0.79, 0.61, -0.61, 0.79, -423.87, -535.59)" gradientUnits="userSpaceOnUse"><stop offset="0.03" stop-color="#fff"/><stop offset="0.17" stop-color="#c7ffff"/><stop offset="0.34" stop-color="#8bffff"/><stop offset="0.5" stop-color="#59ffff"/><stop offset="0.65" stop-color="#3ff"/><stop offset="0.79" stop-color="#17ffff"/><stop offset="0.91" stop-color="#06ffff"/><stop offset="1" stop-color="aqua"/></linearGradient><linearGradient id="Dégradé_sans_nom_40" x1="745.21" y1="178.95" x2="792.58" y2="151.6" gradientTransform="matrix(0.79, 0.61, -0.61, 0.79, -423.87, -535.59)" gradientUnits="userSpaceOnUse"><stop offset="0.04" stop-color="#fff"/><stop offset="0.15" stop-color="#c4ffff"/><stop offset="0.26" stop-color="#91ffff"/><stop offset="0.37" stop-color="#64ffff"/><stop offset="0.49" stop-color="#40ffff"/><stop offset="0.6" stop-color="#24ffff"/><stop offset="0.71" stop-color="#10ffff"/><stop offset="0.82" stop-color="#04ffff"/><stop offset="0.93" stop-color="aqua"/></linearGradient></defs><title>Petit satellite</title><g id="Petit_satellite" data-name="Petit satellite"><polygon class="cls-1" points="1.98 30.06 8.44 17.05 37.38 28.89 28.91 45.25 1.98 30.06"/><path class="cls-2" d="M635.66,359.91l26.13,10.7-7,13.51-24.34-13.73,5.21-10.48m-1.44-3.83-7.72,15.53L656,388.26,666,369.07l-31.74-13Z" transform="translate(-626.5 -340.94)"/><path class="cls-2" d="M675.11,371.91l7.9,3.67,1.79.77a1.68,1.68,0,0,1,1.22,1.53c.08.66-2,5-2,5l-5.89,11.57L676.75,397s-1.15,1.51-3.41-.22c-.37-.29-1.72,2.25-1.72,2.25s3.46,3.25,1.56,4.18l-.57.75s-1.44,1.88-5.5,1.74l-1.73,2.26-5,3.35-.24-4.35.66-.09-.46-1-.26-2,.86-1.13,2.91,1.64,1-.46-4-2.5s-1.85-3.8-.88-6.63c.29-.38.69-2.45,9.15,2.83.66-.08-.09-.66-.09-.66l-4.79-3.07s-.84-1.24.86-1.13c.38.29,6.12,2.9,6.12,2.9l.66-.09s-8.66-4.25-9.12-5.2c.29-.37.49-1.41,3.19-6.49,1.83-3.95,4.16-9.32,4.16-9.32l1.72-2.25A2.58,2.58,0,0,1,675.11,371.91Z" transform="translate(-626.5 -340.94)"/><polygon class="cls-3" points="58.58 62.68 69.28 41.04 111.39 58.19 97.2 84.44 58.58 62.68"/><path class="cls-2" d="M696.5,383.9l39.27,16-12.66,23.44L687.05,403l9.45-19.12m-1.45-3.83L683.1,404.24l41.19,23.2L740,398.37l-45-18.3Z" transform="translate(-626.5 -340.94)"/><line class="cls-4" x1="36.83" y1="31.18" x2="44.36" y2="34.56"/><line class="cls-4" x1="31.32" y1="43.04" x2="38.85" y2="46.42"/><line class="cls-4" x1="58.01" y1="40.85" x2="65.92" y2="44.52"/><line class="cls-4" x1="49.39" y1="52.11" x2="60.21" y2="57.42"/><line class="cls-5" x1="12.29" y1="18.11" x2="4.75" y2="33.05"/><path class="cls-6" d="M633.57,374" transform="translate(-626.5 -340.94)"/><path class="cls-6" d="M641.11,359.11" transform="translate(-626.5 -340.94)"/><line class="cls-5" x1="17.36" y1="20.54" x2="9.82" y2="35.48"/><path class="cls-6" d="M639.4,377.32" transform="translate(-626.5 -340.94)"/><path class="cls-6" d="M646.94,362.38" transform="translate(-626.5 -340.94)"/><line class="cls-5" x1="23.02" y1="22.51" x2="15.1" y2="38.08"/><path class="cls-6" d="M644.65,381.34" transform="translate(-626.5 -340.94)"/><path class="cls-6" d="M653,364.62" transform="translate(-626.5 -340.94)"/><line class="cls-5" x1="28.45" y1="24.2" x2="20.13" y2="40.92"/><line class="cls-5" x1="33.42" y1="27.06" x2="25.1" y2="43.78"/><line class="cls-5" x1="5.8" y1="19.62" x2="36.31" y2="33.45"/><line class="cls-5" x1="4.14" y1="23.71" x2="33.87" y2="37.85"/><line class="cls-5" x1="2.6" y1="27.8" x2="31.56" y2="42.33"/><line class="cls-5" x1="65.55" y1="45.3" x2="109.24" y2="64.46"/><line class="cls-5" x1="62.87" y1="51.76" x2="104.88" y2="72.44"/><line class="cls-5" x1="59.57" y1="57.88" x2="101.38" y2="79.59"/><line class="cls-5" x1="74.78" y1="42.67" x2="62.72" y2="66.19"/><line class="cls-5" x1="81.89" y1="45.26" x2="69.25" y2="69.54"/><line class="cls-5" x1="89.08" y1="48.09" x2="75.58" y2="73.49"/><line class="cls-5" x1="96.44" y1="51.69" x2="82.95" y2="77.08"/><line class="cls-5" x1="104.41" y1="54.54" x2="90" y2="81.12"/><path class="cls-2" d="M680.65,375.56l-.09-.67L674,371l1.44-1.87,8.1,2.63.29-.37-9.7-4.45a6.89,6.89,0,0,1,3.37-5.17s1.57-.88,3.82.84a18.34,18.34,0,0,0,4.61,1.75l-4.5-3.45-.09-.66s3.67,2.21,5,2c.29-.37-7.9-3.67-6.75-5.17.11-1.7-.36-2.65,4.09-2.23l.57-.75s-7.91-3.67-5.47-10.74c-.09-.66,5.94,1.57,5.94,1.57l8.33-.77,1.92-3.29.76.58-1.64,2.91L699,351.2l4.51,3.45s-2.33,5.36-12,3.28l-.28.38s4.77,5.44-2.79,4.41L687,364.6s3.09,3,1.94,4.47c-.77,1.78-2.12,4.32-2.12,4.32L684.89,372l-2.21,3.66Z" transform="translate(-626.5 -340.94)"/><polygon class="cls-7" points="66.26 3.91 59.38 5.35 64.42 7.25 66.26 3.91"/><polygon class="cls-7" points="67.16 4.28 65.4 7.66 71.8 10.83 67.16 4.28"/></g></svg>