<svg id="Calque_1" data-name="Calque 1" xmlns="http://www.w3.org/2000/svg" viewBox="0 0 95.77 223.28"><defs><style>.cls-1{fill:#565656;}.cls-2{fill:#fcfcfc;}</style></defs><title>Tour immeuble</title><g id="Tour_immeuble" data-name="Tour immeuble"><polygon class="cls-1" points="0 214.8 11.77 214.8 11.77 83.73 22.98 83.73 22.98 56.64 32.84 56.64 32.84 38.58 44.33 38.58 44.33 0 49.53 0 49.53 39.4 61.84 39.4 61.84 56.09 71.69 55.82 71.69 84.28 82.09 84.28 82.09 214.8 95.77 214.8 95.77 223.28 0 223.28 0 214.8"/><rect class="cls-2" x="29.67" y="63.12" width="7.66" height="8.03"/><rect class="cls-2" x="44.05" y="63.12" width="7.66" height="8.03"/><rect class="cls-2" x="57.92" y="63.12" width="7.66" height="8.03"/><rect class="cls-2" x="57.92" y="78.44" width="7.66" height="8.03"/><rect class="cls-2" x="44.05" y="78.44" width="7.66" height="8.03"/><rect class="cls-2" x="29.67" y="78.44" width="7.66" height="8.03"/><rect class="cls-2" x="29.67" y="93.76" width="7.66" height="8.03"/><rect class="cls-2" x="44.05" y="93.76" width="7.66" height="8.03"/><rect class="cls-2" x="57.92" y="93.76" width="7.66" height="8.03"/><rect class="cls-2" x="57.92" y="109.09" width="7.66" height="8.03"/><rect class="cls-2" x="44.05" y="109.09" width="7.66" height="8.03"/><rect class="cls-2" x="29.67" y="109.09" width="7.66" height="8.03"/><rect class="cls-2" x="29.67" y="124.41" width="7.66" height="8.03"/><rect class="cls-2" x="44.05" y="124.41" width="7.66" height="8.03"/><rect class="cls-2" x="57.92" y="124.41" width="7.66" height="8.03"/><rect class="cls-2" x="57.92" y="141.19" width="7.66" height="8.03"/><rect class="cls-2" x="44.05" y="141.19" width="7.66" height="8.03"/><rect class="cls-2" x="29.67" y="141.19" width="7.66" height="8.03"/><rect class="cls-2" x="29.67" y="157.98" width="7.66" height="8.03"/><rect class="cls-2" x="29.67" y="174.76" width="7.66" height="8.03"/><rect class="cls-2" x="44.05" y="191.54" width="7.66" height="8.03"/><rect class="cls-2" x="29.67" y="191.54" width="7.66" height="8.03"/><rect class="cls-2" x="57.92" y="191.54" width="7.66" height="8.03"/><rect class="cls-2" x="44.05" y="174.76" width="7.66" height="8.03"/><rect class="cls-2" x="57.92" y="174.76" width="7.66" height="8.03"/><rect class="cls-2" x="44.05" y="157.98" width="7.66" height="8.03"/><rect class="cls-2" x="57.92" y="157.98" width="7.66" height="8.03"/></g></svg>