<svg id="Calque_1" data-name="Calque 1" xmlns="http://www.w3.org/2000/svg" viewBox="0 0 483.4 166.06"><defs><style>.cls-1{fill:#6b6b6a;stroke:#2d2925;stroke-miterlimit:10;}.cls-2{fill:#2d2925;}.cls-3{fill:#827560;}.cls-4{fill:#11100e;}.cls-5{fill:#f9f8f7;}.cls-6{fill:#ddd;}.cls-7{fill:#c4c2c0;}.cls-8{fill:#f9f6f4;}</style></defs><title>Tronçonneuse</title><g id="Trnçonneuse"><path class="cls-1" d="M644.08,395.17h-6.57l-.35,2.29-2.82-.38v-1.91l-3.56-.15-.26,2.22-6.54-.12-.19-1.83h-2.1v1.91l-2.14-.08-.23-1.91-3.74-.19-.19,2-3.86,0-2,.23-.62-1v-.53l-1.91,0,.2,1.14-2.41-.15-.46-1.38-3.47-.34.19,2-2,0-1.38-.49v.91h-1l-.3-.53-.65-.69h-1l-.76-.49-.92-.08-1,.19v.57l-.23.54-1,0-.34-1.68h-4.78v1.34l-2.94.34v1h-1.34l-.19-1.44h-1.87l-.42-.78-1.72-.15-.38.93-1.87.21-.23-1.64h-3.86l.19,1.72-2-.29-1.49.4-.27.81-.69-.12-.53-1.26-1.65.17-.26-1.2-1.8.23-.65,1v.84l-1.26-.17-.57-1.92-3.9-.06-.4,1.75-4.81.12h-1.18l-.43-1.12-2.06.06-.57,1.09-1.35.11-.14-2-4.24,0v2H539l-.49-.89-.6,1.57-1.75-.2-.14-.94-2,0-.2-1.35h-1.75v1.49l-2-.23-.52-1.4-3.41-.27v2.19h-3.92l-1.55-.17-.17-1.18-1.72.17-.26-1-1.43.15v1l-2,.09v-1.46h-4.24V397l-1.49,0v-.68h-1.37l.26.88-1.9-.15-.14-1-1.95.24-.14-1.22-2.15-.31v1.53l-.83.62-1.12-.62v-1.27l-3.75,0-.2,1.77-5,.29-.2-1.35h-4l.12,1.41-1.66-.2v-2.21h-4.13l.2,2.58-4.35-.32-1.52-.08-.63-1.52-2.72.17-.26,1.15-1.72-.12v-1.37l-3.89.05v2.07l-5,.14-.14-1.22H459.8v.76h-.94l-.12-1.26-1.89.12-.45,1.2-.92.49-.63-.63-.29-1.27-1.69.26-1.14.52L451,398.1V400s-2.35-.92-3,2.29a11.1,11.1,0,0,1-2.66-.26v1l-2.52-.2a18.6,18.6,0,0,0,0,2.24l-.17,1.6h-3.35v2.89l2.29.15-.69,1.17-2.23.57-.12,2.38.95.29.2,1.26-1.95.2.4,1.83-1.83.86-.92,1,.23.54,2.2.4v1l.18,1-.92.8-1.35-.17.2,1.23.38,1.14.74.69,2-.23-.15,1.64.6,1.69.21,1.63,2-.34.15,1.71-.32,2.32.11,1.92,2.35-.4,1.58.09-.29.89.26,1.31.95.78h2.14l1.06-.72.58.72.86.77,1.29-.26,1.46.26.48.66,1.95.8h12.61L469,443H472l.54-1.94,2.75-.26,2.72.31,5.59-.31-.34,2.52,4-.55-.09-2,5.59-.12.54,1.18,4.5-.35.89,2.07,2.89-.2,1-1-.57-1.23,5.21-.14,6.16.26,0,2.32,4-.15-.09-2,8,.08,2.92-.11.29,1.78,4-.09-.23-1.89,4.41-.2,5.62.23.68,2.17,4.47-.17-.31-2h7.85l4,.08-.26,2.24,3.07-.26.17-1.81,6.42-.37,4.49.14.12,2.3,4.64-.32-.4-1.92,6-.2,5,0,0,2.09,4.41,0-.37-2.06,5.64-.09.31,1.92,2.24-.11-.2-1.67,2.49.09-.06,1.86,4.47-.23-.14-2,5.18.51,1.44.18.17,1.89,2.43-.23-.17-1.35,1.46-.31.75,1.89h4L622,441l7.39.37,3.58-.11,0,2,4.5-.29.06-1.06.94-.06,2.72,1.52,2.41,1.6.94.18S637.81,408.92,644.08,395.17Z" transform="translate(-434.75 -300)"/><path class="cls-2" d="M654.44,370.53l-10.09-10.08-6,1.83S625.56,338,633.81,300.4c6.31-2.18,10.54,5,12.38,9.63s1.83,29.33,13.75,39.42,15.58,10.08,15.58,10.08V366S656.73,366.86,654.44,370.53Z" transform="translate(-434.75 -300)"/><path class="cls-3" d="M732.42,337.39h49s11.46,0,13.37,29.28c3.82,24.19,12.73,86.58,12.73,86.58s5.73,14-29.92,12.73-56,.08-56,.08h-35l-8.92-8.35S691,440.52,689.13,424s-1.27-65.58-1.27-65.58S733.06,345,732.42,337.39Z" transform="translate(-434.75 -300)"/><path class="cls-2" d="M733.68,422.16h15.2s2.83,1.3,0,3.14c-3.67-.08-15.74,0-15.74,0S729.4,422.78,733.68,422.16Z" transform="translate(-434.75 -300)"/><path class="cls-2" d="M732.15,427.5h15.2s2.83,1.3,0,3.13c-3.66-.08-15.73,0-15.73,0S727.87,428.11,732.15,427.5Z" transform="translate(-434.75 -300)"/><path class="cls-2" d="M729.48,432.83h15.2s2.83,1.3,0,3.14c-3.67-.08-15.74,0-15.74,0S725.2,433.44,729.48,432.83Z" transform="translate(-434.75 -300)"/><path class="cls-2" d="M726.42,438.17h15.2s2.83,1.3,0,3.13c-3.66-.08-15.73,0-15.73,0S722.14,438.78,726.42,438.17Z" transform="translate(-434.75 -300)"/><path class="cls-2" d="M729.48,416.83h15.2s2.83,1.3,0,3.13c-3.67-.08-15.74,0-15.74,0S725.2,417.44,729.48,416.83Z" transform="translate(-434.75 -300)"/><path class="cls-2" d="M725.05,411.49h15.2s2.82,1.3,0,3.14c-3.67-.08-15.74,0-15.74,0S720.77,412.11,725.05,411.49Z" transform="translate(-434.75 -300)"/><path class="cls-2" d="M720.22,406.15h15.2s2.83,1.3,0,3.13c-3.66-.08-15.73,0-15.73,0S715.94,406.76,720.22,406.15Z" transform="translate(-434.75 -300)"/><path class="cls-2" d="M730.52,350.36h22.9s4.26,1.3,0,3.14c-5.52-.08-23.71,0-23.71,0S724.07,351,730.52,350.36Z" transform="translate(-434.75 -300)"/><path class="cls-2" d="M735.84,355.18h17.64s3.27,1.29,0,3.13c-4.26-.08-18.26,0-18.26,0S730.88,355.79,735.84,355.18Z" transform="translate(-434.75 -300)"/><path class="cls-2" d="M739.92,360.14h13.37s2.49,1.3,0,3.13c-3.22-.07-13.84,0-13.84,0S736.16,360.75,739.92,360.14Z" transform="translate(-434.75 -300)"/><path class="cls-2" d="M696.13,422.17h-15.2s-2.83,1.3,0,3.13c3.66-.07,15.73,0,15.73,0S700.41,422.78,696.13,422.17Z" transform="translate(-434.75 -300)"/><path class="cls-2" d="M697.66,427.51H682.45s-2.82,1.29,0,3.13c3.67-.08,15.74,0,15.74,0S701.93,428.12,697.66,427.51Z" transform="translate(-434.75 -300)"/><path class="cls-2" d="M700.33,432.84h-15.2s-2.83,1.3,0,3.13c3.66-.07,15.73,0,15.73,0S704.61,433.45,700.33,432.84Z" transform="translate(-434.75 -300)"/><path class="cls-2" d="M703.39,438.17H688.18s-2.82,1.3,0,3.14c3.67-.08,15.74,0,15.74,0S707.66,438.79,703.39,438.17Z" transform="translate(-434.75 -300)"/><path class="cls-2" d="M700.33,416.84h-15.2s-2.83,1.29,0,3.13c3.66-.08,15.73,0,15.73,0S704.61,417.45,700.33,416.84Z" transform="translate(-434.75 -300)"/><path class="cls-2" d="M704.76,411.5h-15.2s-2.83,1.3,0,3.13c3.66-.07,15.74,0,15.74,0S709,412.11,704.76,411.5Z" transform="translate(-434.75 -300)"/><path class="cls-2" d="M709.58,406.15h-15.2s-2.82,1.3,0,3.14c3.67-.08,15.74,0,15.74,0S713.86,406.76,709.58,406.15Z" transform="translate(-434.75 -300)"/><path class="cls-3" d="M674.12,364.12s-16.64-2.75-22.14,4.12l-5.5,6.88-6.16,26.81v46.75l4.79,6.32h15.8s15.41-13.19,14.58-24.19S674.12,364.12,674.12,364.12Z" transform="translate(-434.75 -300)"/><circle class="cls-2" cx="279.3" cy="125.3" r="10.85"/><circle class="cls-2" cx="221.18" cy="134.41" r="11.41"/><path class="cls-4" d="M648.81,436.06l13.8-6.37s3.11,0,1.31,2.84c-3.36,1.47-14.29,6.59-14.29,6.59S645.18,438.4,648.81,436.06Z" transform="translate(-434.75 -300)"/><circle class="cls-2" cx="353.19" cy="145.81" r="11.41"/><path class="cls-4" d="M780.81,447.46l13.81-6.36s3.11,0,1.31,2.84c-3.36,1.47-14.29,6.59-14.29,6.59S777.19,449.81,780.81,447.46Z" transform="translate(-434.75 -300)"/><path class="cls-2" d="M658.87,453.49s16.19-19.86,11.92-36.36c.3-16.5.72-77.31.72-77.31s-.72-24.45,20.67-30.87c7,0,20.78-.61,32.69,15.89s9.78,14.37,9.78,14.37L720,346.85s-15.13-22-23.15-19.87-8,8.87-8,19.87.61,77.92.61,77.92.61,20.78-13.75,35.44C668,469.08,653.06,459.3,658.87,453.49Z" transform="translate(-434.75 -300)"/><path class="cls-2" d="M751.94,390.65V380.56h-9.16v-5.95s27-9.17,35.75,0a20.59,20.59,0,0,1,0,6H758.36l-1.83,8.22,2.29,4.59s-3.67,7.79-8.25,0Z" transform="translate(-434.75 -300)"/><path class="cls-3" d="M841.17,386.36l34.36,6.69s7.77,7.33,0,9.17S841.17,386.36,841.17,386.36Z" transform="translate(-434.75 -300)"/><path class="cls-2" d="M796.49,384s18.56-9.36,51.57,5.08,50.87,24.06,50.87,24.06,31.63,27.51,13.76,43.32c-17.19,11.69-107.17,4.93-112.76,5.5C810.93,456.42,796.49,384,796.49,384Z" transform="translate(-434.75 -300)"/><path class="cls-5" d="M815.24,402.62s-15.58,17.11,1.68,37c.76,1.07,6.72,12.07,41.1,12.38,33.92.92,41.25,0,41.25,0s13.75-5.81,1.53-21.7c-3.67-2-2.44-4.73-30.25-11.45-2.75-.31-21.39-4.74-26-9.78-2,3.51-14.21,11.46-15.89,8.55S831.28,408.73,815.24,402.62Z" transform="translate(-434.75 -300)"/><path class="cls-6" d="M636.88,400.11h-176s-14.66-2.75-19.7,16.05c.91,4.12-.92,21.54,24.29,20.62s169.45,0,169.45,0h3.81Z" transform="translate(-434.75 -300)"/><circle class="cls-7" cx="31.4" cy="113.62" r="2.06"/><circle class="cls-7" cx="27.55" cy="117.65" r="2.06"/><circle class="cls-7" cx="31.4" cy="121.54" r="2.06"/><circle class="cls-7" cx="35.32" cy="117.65" r="2.06"/><circle class="cls-8" cx="63.39" cy="117.65" r="2.06"/></g></svg>