<svg id="Calque_1" data-name="Calque 1" xmlns="http://www.w3.org/2000/svg" viewBox="0 0 191.83 217.58"><defs><style>.cls-1{fill:#494848;}.cls-2{fill:none;stroke:#494848;stroke-miterlimit:10;stroke-width:0.33px;}</style></defs><title>Arc</title><g id="Arc"><path class="cls-1" d="M758.27,498c-2,0,26.14-53.73-20.61-108.79l-10.46-4.62-17.84-23.68-14-12.22-3.27-2.86-7.69-20s-45.53-56-103.36-39.07c0,0-4.1-2.46,0-2.46s32.81-12.71,69.32,7.8c15.28,8.58,24.24,15.23,29.49,20.05,7.28,6.7,7.42,9.89,7.42,9.89h2.46l6.56,8.61s-6.07,2.39,7,17.23c8.79,10,10.81,10,10.81,10s10.1,18.32,18.31,17.91c7,4.51,57.42,57.42,25.84,122.22" transform="translate(-579.26 -280.42)"/><polyline class="cls-2" points="8.52 4.69 14.27 179.26 180.79 212.89"/><path class="cls-1" d="M594,458.88l2.64-2.29s-7.29-9.14,15-12.28c18.28-15.19,102.54-87.14,102.54-87.14l48.94-41.39-3.32-3.45,11.25-2.39-3.15,10.91-3.74-3.65L611.9,445.54s-4.29,18.71-14.41,12.27l-2.24,2.08L594,459Z" transform="translate(-579.26 -280.42)"/></g></svg>