<svg id="Calque_1" data-name="Calque 1" xmlns="http://www.w3.org/2000/svg" xmlns:xlink="http://www.w3.org/1999/xlink" viewBox="0 0 245.44 331.24"><defs><style>.cls-1{fill:#bfbebe;}.cls-2{fill:#f91010;}.cls-3{fill:#c0b19a;}.cls-4{fill:#6a6054;}.cls-5{fill:#5c534a;}.cls-6{fill:#e3ccac;}.cls-7{fill:#cebfaa;}.cls-8{fill:#6a6056;}.cls-9{fill:#f90d0d;}.cls-10{fill:#d3c4ad;}.cls-11,.cls-12,.cls-17{fill:none;stroke-miterlimit:10;}.cls-11{stroke:#444343;}.cls-12{stroke:#41372e;}.cls-13{fill:url(#Dégradé_sans_nom_23);}.cls-14{fill:url(#Dégradé_sans_nom_7);}.cls-15{fill:url(#Dégradé_sans_nom_7-2);}.cls-16{fill:url(#Dégradé_sans_nom_7-3);}.cls-17{stroke:#f4f0ea;}.cls-18{fill:#6c5f4e;}.cls-19{fill:#95876d;}.cls-20{fill:#b3d392;}.cls-21{fill:#e9d098;}</style><linearGradient id="Dégradé_sans_nom_23" x1="88.43" y1="121.16" x2="148.71" y2="126.43" gradientUnits="userSpaceOnUse"><stop offset="0" stop-color="#bca78a"/><stop offset="0.4" stop-color="#b29e81"/><stop offset="1" stop-color="#9b8a6c"/></linearGradient><linearGradient id="Dégradé_sans_nom_7" x1="563.22" y1="310.56" x2="623.23" y2="315.81" gradientUnits="userSpaceOnUse"><stop offset="0" stop-color="#875e48"/><stop offset="0.48" stop-color="#774e3a"/><stop offset="1" stop-color="#6a412f"/></linearGradient><linearGradient id="Dégradé_sans_nom_7-2" x1="655.69" y1="245.94" x2="715.71" y2="251.19" xlink:href="#Dégradé_sans_nom_7"/><linearGradient id="Dégradé_sans_nom_7-3" x1="748.19" y1="311.98" x2="808.2" y2="317.23" xlink:href="#Dégradé_sans_nom_7"/></defs><title>Château</title><g id="Chateau"><polygon class="cls-1" points="27.21 68.61 27.21 45.45 29.62 45.45 29.62 69.76 27.21 68.61"/><polygon class="cls-1" points="211.58 68.95 211.58 45.79 213.99 45.79 213.99 70.09 211.58 68.95"/><polygon class="cls-1" points="100.78 80.76 100.78 57.6 103.19 57.6 103.19 81.91 100.78 80.76"/><polygon class="cls-1" points="120.5 81.1 120.5 57.94 122.91 57.94 122.91 82.25 120.5 81.1"/><polygon class="cls-1" points="142.87 80.76 142.87 57.6 145.28 57.6 145.28 81.91 142.87 80.76"/><rect class="cls-2" x="27.21" y="42.88" width="8.86" height="5.14"/><rect class="cls-2" x="210.77" y="42.88" width="8.86" height="5.14"/><path class="cls-3" d="M565,340.53s-1.71,8.57,5.15,21.87c.43,15,0,128.66,0,128.66H610V368.4l5.58-17.15V340.53Z" transform="translate(-560.58 -217.76)"/><path class="cls-4" d="M586.86,413.86h6.87V397.57s-4.29-4.29-6.87,0C586.44,403.57,586.86,413.86,586.86,413.86Z" transform="translate(-560.58 -217.76)"/><path class="cls-4" d="M586.86,446.89h6.87v-16.3s-4.29-4.29-6.87,0C586.44,436.59,586.86,446.89,586.86,446.89Z" transform="translate(-560.58 -217.76)"/><path class="cls-4" d="M586.86,479.91h6.87v-16.3s-4.29-4.29-6.87,0C586.44,469.62,586.86,479.91,586.86,479.91Z" transform="translate(-560.58 -217.76)"/><path class="cls-5" d="M572.14,357.68h9.15v-9.22s-3.11-10.62-8.69,0v9.22Z" transform="translate(-560.58 -217.76)"/><path class="cls-5" d="M585.63,357.68h9.14v-9.22s-3.1-10.62-8.68,0v9.22Z" transform="translate(-560.58 -217.76)"/><path class="cls-5" d="M598.92,357.68h9.15v-9.22s-3.11-10.62-8.68,0v9.22Z" transform="translate(-560.58 -217.76)"/><rect class="cls-6" x="8.67" y="139.92" width="43.32" height="4.29"/><polygon class="cls-7" points="54.79 133.49 66.51 132.95 66.51 125.98 80.38 125.98 80.38 132.95 86.35 132.95 86.35 126.84 99.64 127.05 99.64 132.95 102.97 132.95 102.97 166.83 144.14 166.83 144.14 132.95 147.14 132.95 147.14 128.23 160.86 127.81 160.86 132.95 166.01 132.95 166.01 127.81 179.31 127.81 179.31 132.95 190.3 132.95 196.2 144.21 196.2 273.3 49.21 273.3 49.21 147.53 54.79 133.49"/><path class="cls-8" d="M622.81,420.82h7.72V394.23s-2.58-5.58-7.72,0Z" transform="translate(-560.58 -217.76)"/><path class="cls-8" d="M718.23,420.82H726V394.23s-2.57-5.58-7.72,0Z" transform="translate(-560.58 -217.76)"/><path class="cls-8" d="M738.17,420.82h7.72V394.23s-2.57-5.58-7.72,0Z" transform="translate(-560.58 -217.76)"/><path class="cls-8" d="M644.46,420.82h7.72V394.23s-2.57-5.58-7.72,0Z" transform="translate(-560.58 -217.76)"/><rect class="cls-9" x="83.24" y="228.6" width="9.01" height="5.23"/><rect class="cls-9" x="157" y="228.6" width="9.01" height="5.23"/><path class="cls-10" d="M655.29,491.27V432.41S671.68,402.84,681.5,405h9.81s15.87,8,22.73,23.93c2.15,15.95,1,62.38,1,62.38h-4l.43-55.21-.32-5.8s-10.51-18.23-22-22a73.78,73.78,0,0,0-8.58-.11s-18.87,15.77-20.05,24.56-.75,58.54-.75,58.54Z" transform="translate(-560.58 -217.76)"/><line class="cls-11" x1="101.98" y1="210.51" x2="101.98" y2="272.89"/><line class="cls-11" x1="109.99" y1="201.84" x2="109.99" y2="272.89"/><line class="cls-11" x1="117.78" y1="193.44" x2="117.78" y2="272.89"/><line class="cls-11" x1="124.86" y1="190.01" x2="124.86" y2="272.89"/><line class="cls-11" x1="132.25" y1="193.44" x2="132.25" y2="272.89"/><line class="cls-11" x1="139.65" y1="198.7" x2="139.65" y2="272.89"/><line class="cls-11" x1="147.27" y1="209.65" x2="147.27" y2="272.89"/><line class="cls-12" x1="113.04" y1="199.16" x2="136.52" y2="199.16"/><line class="cls-12" x1="106.28" y1="206.82" x2="143.59" y2="206.82"/><line class="cls-12" x1="100.38" y1="214.11" x2="148.74" y2="214.11"/><line class="cls-12" x1="99.53" y1="221.51" x2="151.21" y2="221.51"/><line class="cls-12" x1="98.45" y1="229.06" x2="151.85" y2="229.06"/><line class="cls-12" x1="97.86" y1="237.1" x2="152.28" y2="237.1"/><line class="cls-12" x1="97.73" y1="245.13" x2="152.14" y2="245.13"/><line class="cls-12" x1="97.44" y1="252.16" x2="151.85" y2="252.16"/><line class="cls-12" x1="97.73" y1="260.09" x2="152.14" y2="260.09"/><line class="cls-12" x1="97.73" y1="267.17" x2="152.14" y2="267.17"/><path class="cls-3" d="M750.58,341.17s-1.72,8.57,5.14,21.87c.43,15,0,128.66,0,128.66h39.89V369l5.57-17.15V341.17Z" transform="translate(-560.58 -217.76)"/><path class="cls-4" d="M772.45,414.5h6.86V398.2s-4.29-4.28-6.86,0C772,404.21,772.45,414.5,772.45,414.5Z" transform="translate(-560.58 -217.76)"/><path class="cls-4" d="M772.45,447.53h6.86v-16.3s-4.29-4.29-6.86,0C772,437.23,772.45,447.53,772.45,447.53Z" transform="translate(-560.58 -217.76)"/><path class="cls-4" d="M772.45,480.55h6.86v-16.3s-4.29-4.29-6.86,0C772,470.26,772.45,480.55,772.45,480.55Z" transform="translate(-560.58 -217.76)"/><path class="cls-5" d="M757.72,358.32h9.15V349.1s-3.11-10.62-8.68,0v9.22Z" transform="translate(-560.58 -217.76)"/><path class="cls-5" d="M771.21,358.32h9.15V349.1s-3.11-10.62-8.69,0v9.22Z" transform="translate(-560.58 -217.76)"/><path class="cls-5" d="M784.5,358.32h9.15V349.1s-3.11-10.62-8.68,0v9.22Z" transform="translate(-560.58 -217.76)"/><rect class="cls-6" x="194.26" y="140.56" width="43.32" height="4.29"/><polygon class="cls-13" points="101.48 173.99 101.48 113.06 97.26 103.15 92.47 95.05 92.47 74.94 109.03 74.94 109.03 81.84 116.43 81.84 116.43 74.94 128.57 74.94 128.57 80.64 136.88 80.64 136.88 74.94 150.94 74.94 150.94 96.25 144.55 107.05 144.55 173.99 101.48 173.99"/><path class="cls-14" d="M560.58,340.7s6.34,2.58,27.83-58.32c7.77,13.72,22.35,53.21,32.65,58.34Z" transform="translate(-560.58 -217.76)"/><path class="cls-15" d="M653.05,276.09s6.34,2.57,27.83-58.33c7.77,13.72,22.35,53.21,32.65,58.34Z" transform="translate(-560.58 -217.76)"/><path class="cls-16" d="M745.55,342.13s6.34,2.57,27.83-58.33c7.77,13.73,22.35,53.21,32.64,58.35Z" transform="translate(-560.58 -217.76)"/><rect class="cls-6" x="100.41" y="108.5" width="45.01" height="4.55"/><path class="cls-17" d="M657.72,489.76V433.43s4-15.81,25.12-29.53c11.19-.43,30.92,24.67,31.21,28.67s0,57.19,0,57.19" transform="translate(-560.58 -217.76)"/><path class="cls-18" d="M664,326h8.15V314.41s-2.79-6.44-8.15,0A78.1,78.1,0,0,0,664,326Z" transform="translate(-560.58 -217.76)"/><path class="cls-18" d="M679.88,326H688V314.41s-2.79-6.44-8.15,0A78.1,78.1,0,0,0,679.88,326Z" transform="translate(-560.58 -217.76)"/><path class="cls-18" d="M694,326h8.14V314.41s-2.78-6.44-8.14,0A78.1,78.1,0,0,0,694,326Z" transform="translate(-560.58 -217.76)"/><path class="cls-17" d="M666.86,393c4.64,9.65,6.76,13.33,6.76,13.33" transform="translate(-560.58 -217.76)"/><line class="cls-17" x1="113.04" y1="176.05" x2="116.69" y2="185.7"/><line class="cls-17" x1="119.11" y1="176.05" x2="120.11" y2="183.99"/><line class="cls-17" x1="126.37" y1="176.05" x2="125.37" y2="183.99"/><line class="cls-17" x1="133.43" y1="176.48" x2="131.08" y2="186.13"/><line class="cls-17" x1="139.15" y1="175.2" x2="133.88" y2="188.53"/><rect class="cls-19" x="86.03" y="241.58" width="3.43" height="21.16"/><rect class="cls-19" x="159.79" y="243.11" width="3.43" height="21.16"/><path class="cls-20" d="M566.38,490.56s81.73,51.39,231.78,0C700.57,492.17,566.38,490.56,566.38,490.56Z" transform="translate(-560.58 -217.76)"/><path class="cls-21" d="M654.87,491.23s-24.59,14.58-9.43,13.72c8.57,5.15,8.86,3.15,27.44,14.58.58,3.43,6.29,10.3-14.58,17.44-8,4-21.16,6.58,28.59,10.58,9.44,1.72,77.49,1.43,77.49,1.43s33.74-3.14,10.58-13.44c-20.59-5.14-22-6.86-50-12.86-5.15-.86-17.73-3.72-30.59-15.44-1.43-2.29,6.57-14.87,15.44-16S654.87,491.23,654.87,491.23Z" transform="translate(-560.58 -217.76)"/></g></svg>