<svg id="Calque_1" data-name="Calque 1" xmlns="http://www.w3.org/2000/svg" viewBox="0 0 215.38 229.12"><defs><style>.cls-1{fill:#b6b6b7;}.cls-2{fill:#1b1b1c;}.cls-3{fill:#5a3d1c;}.cls-4,.cls-6{fill:none;stroke-miterlimit:10;}.cls-4{stroke:#232222;}.cls-5{fill:#cac7d1;}.cls-6{stroke:#101011;}.cls-7{fill:#e8deff;}</style></defs><title>Scie à main</title><g id="Scie_à_main" data-name="Scie à main"><path class="cls-1" d="M703.32,339.44l92,124.8L766.2,499s-5.28-6.4-3.36-8.8-9.6,0-9.6,0v-8.64l-10.56,1,.48-10.56-9.12,1-1.44-9.6-8.64.48-1.44-9.12-9.12,1.92V446l-10.08,1V436.88l-10.08,1.44v-8.64h-9.6V419.2H673.56v-8.72l-7.68,1.44V402.8l-10.56,1-1.92-9.12-10.08-.48v-8.64h-9.6v-8.64H623.16v-8.16l-9.6.48v-9.6l-9.6-.48,7.2-9.6s16.32,16.8,42.24-1a45.75,45.75,0,0,1,33-.48S700.42,335.51,703.32,339.44Z" transform="translate(-579.98 -269.84)"/><polygon class="cls-2" points="115.18 73.44 200.68 191.48 203.5 195.37 190.06 210.25 198.22 193.93 115.18 73.44"/><path class="cls-3" d="M703.32,340.88l-8.64-22.56s-13-3.84-13.92-8.64-13.92-40.32-30.24-39.84c-5.28,0-3.36,14.88-8.16,16.8s-34.08,12-40.32,20.64c-2.4,3.36-17.28-1.92-17.28-1.92s-13.92-4.32,5.76,20.16c5.28,4.8,24,26.88,24,26.88s13.92,11.52,34.56,1.92c19.68-8.64,16.48-9.6,37.28-4.8Z" transform="translate(-579.98 -269.84)"/><path class="cls-4" d="M607.33,310.17s-9.12,8.15-20.16,0c9.12,12.48,26.4,25.92,23.52,27.84s23,23.52,34.08,13c1-.48,15.84-9.12,27.36-8.16,4.8,2.4,15.2,3.36,15.2,3.36l8.8-6.72" transform="translate(-579.98 -269.84)"/><circle class="cls-5" cx="58.9" cy="73.44" r="4.68"/><circle class="cls-5" cx="80.5" cy="66.86" r="4.68"/><circle class="cls-5" cx="103.02" cy="66.86" r="4.68"/><path class="cls-6" d="M638.88,340.64v5.28" transform="translate(-579.98 -269.84)"/><path class="cls-6" d="M662,334.32l-2.28,4.76" transform="translate(-579.98 -269.84)"/><path class="cls-6" d="M681.15,334.82l3.7,3.76" transform="translate(-579.98 -269.84)"/><path class="cls-7" d="M618.5,319.84s10.08-21.6,41.76-19.2c0,2.88,11,4.8,0,14.88C656.9,317.44,637.7,317,630,331.36,626.18,332.32,616.1,334.24,618.5,319.84Z" transform="translate(-579.98 -269.84)"/></g></svg>