<svg id="Calque_1" data-name="Calque 1" xmlns="http://www.w3.org/2000/svg" viewBox="0 0 163.99 96.76"><defs><style>.cls-1,.cls-2,.cls-5{fill:#f9f9f9;}.cls-1{stroke:#491f1f;}.cls-1,.cls-2{stroke-miterlimit:10;}.cls-2{stroke:#441d1d;}.cls-3{fill:#e26f6f;}.cls-4{fill:#422626;}.cls-6{fill:#472525;}</style></defs><title>Steak_Nourriture</title><g id="Steak"><path class="cls-1" d="M690.64,337.05s-19.78,1.39-48.08,19.18S613,375.06,608.37,381c-.62.78-15.57,17.88,5.88,21.38s54.52-4,54.52-4,21.36-4.35,48.05,9.59c13.58,7,27.58,5.8,37.78-5.69,4.08-4.6,16-13.12,5.93-31.42C749.93,351.73,734.35,347,734.35,347S722.85,336.77,690.64,337.05Z" transform="translate(-601.02 -336.54)"/><path class="cls-2" d="M764.52,384.17l-.75,25.57s-4.29,18-31,22.93c-6.33,1.6-33.55-11.32-33.55-11.32s-26-8.06-48.56.41c-4.92,2.15-33,6.48-39,1.85s-9.68-8-10.13-17.95c.18-3.7,1.43-14.61,1.43-14.61" transform="translate(-601.02 -336.54)"/><path class="cls-3" d="M734.06,405.42c-10.12,0-21.16-4.58-21.27-4.62s-18.34-8.6-38.55-8.6A62.72,62.72,0,0,0,660,393.77c-.22.06-18.33,5.69-32,5.69-7.17,0-11.83-1.52-13.85-4.52-1.65-2.46-1.55-6,.3-10.54l.07-.18-.07-.19s-.4-1.15.68-3.33c3.11-6.29,17.32-19.68,77.59-38.62a35.5,35.5,0,0,1,10.69-1.59c22.34,0,44,19,44.16,19.2s11.81,12.93,10.15,25.94c-.8,6.31-4.61,11.68-11.3,16C743.54,404.15,739.4,405.42,734.06,405.42Z" transform="translate(-601.02 -336.54)"/><path class="cls-4" d="M703.4,341c21.7,0,42.78,18.16,43.79,19,.68.75,11.61,13.07,10,25.54-.78,6.15-4.5,11.41-11.07,15.62l-.07,0-.06.06c-2.71,2.41-6.73,3.63-12,3.63-10,0-21-4.54-21-4.57s-18.45-8.65-38.78-8.65a63.21,63.21,0,0,0-14.39,1.58h-.07c-.18.06-18.21,5.66-31.79,5.66-7,0-11.51-1.45-13.43-4.3-1.56-2.31-1.44-5.7.34-10.07l.16-.34-.15-.38s-.32-1.07.75-3.13c3.22-6.21,17.54-19.43,77.2-38.19A35.14,35.14,0,0,1,703.4,341m0-1a35.93,35.93,0,0,0-10.84,1.61c-85,26.72-78.59,42.61-78.59,42.61-5,12.3,3.2,15.75,14,15.75,13.89,0,32.09-5.7,32.09-5.7a61.88,61.88,0,0,1,14.16-1.56c20.34,0,38.35,8.56,38.35,8.56s11.13,4.66,21.47,4.66c4.76,0,9.36-1,12.62-3.89,25.58-16.42,1.21-42.71,1.21-42.71S726.18,340,703.4,340Z" transform="translate(-601.02 -336.54)"/><path class="cls-5" d="M718.7,376.34c-6.12,0-10.81-2.64-11.4-6.41-.73-4.57,4.74-9.24,12.18-10.42a21.74,21.74,0,0,1,3.4-.27c6.11,0,10.8,2.64,11.4,6.41.34,2.17-.7,4.44-2.95,6.4a18.64,18.64,0,0,1-9.23,4,21.83,21.83,0,0,1-3.4.27Z" transform="translate(-601.02 -336.54)"/><path class="cls-6" d="M722.88,359.74c5.77,0,10.36,2.52,10.91,6,.68,4.29-4.6,8.71-11.77,9.84a20.83,20.83,0,0,1-3.32.27c-5.77,0-10.36-2.52-10.91-6-.68-4.29,4.6-8.71,11.76-9.84a21,21,0,0,1,3.33-.27m0-1a22,22,0,0,0-3.48.28c-7.73,1.22-13.37,6.14-12.6,11,.65,4.1,5.68,6.83,11.9,6.83a22,22,0,0,0,3.48-.28c7.72-1.22,13.36-6.14,12.59-11-.65-4.1-5.68-6.84-11.89-6.84Z" transform="translate(-601.02 -336.54)"/></g></svg>