<svg id="Calque_1" data-name="Calque 1" xmlns="http://www.w3.org/2000/svg" viewBox="0 0 128.69 63.31"><defs><style>.cls-1{fill:#895627;}.cls-2{fill:#fac776;}.cls-3{fill:#4f2b14;}.cls-4{fill:#714a21;}.cls-5{fill:none;stroke:#1e1d1d;stroke-miterlimit:10;stroke-width:0.5px;}.cls-6{fill:#73451b;}</style></defs><title>Bûche seule</title><g id="Bûche_simple" data-name="Bûche simple"><path class="cls-1" d="M639.81,413l103.1-29.55s11.45-10.18,0-27.5h-3.13l-1-1s0-6.11-12.49-3.05-67.69,19.35-67.69,19.35l-1.56.51s-1,4.07-9.38,2c-5.2,2-20.82,7.13-20.82,7.13s-12.5,6.11-5.21,22.41S639.81,413,639.81,413Z" transform="translate(-619.31 -351)"/><ellipse class="cls-2" cx="652.67" cy="372.91" rx="4.99" ry="2.68" transform="translate(-668.46 -247.33) rotate(-8.75)"/><path class="cls-3" d="M640.86,408.9,746,379.2l-3.07,4.23L639.81,413S639.81,408.9,640.86,408.9Z" transform="translate(-619.31 -351)"/><path class="cls-4" d="M642.94,404.83l104.13-29.55c.67-.18.17,1.39,0,2l-1,2L641.9,408.9S641.9,404.83,642.94,404.83Z" transform="translate(-619.31 -351)"/><polygon class="cls-2" points="80.91 15.12 123.6 4.93 120.48 3.91 80.91 15.12"/><line class="cls-5" x1="79.86" y1="15.12" x2="120.48" y2="3.91"/><path class="cls-2" d="M639.81,412s14.58-13.25-4.16-29.54c-9.37-8.15-23.95,15.28-6.25,28.52a14.73,14.73,0,0,0,3.12,2c.35.16,1.05-7.14,1.05-7.14s-.42,7.07,0,7.14a14,14,0,0,0,5.2,0c-.52-1.53-3.64-9.68-3.64-9.68Z" transform="translate(-619.31 -351)"/><path class="cls-6" d="M645.22,374.66a10.49,10.49,0,0,0,2.76-2.12c.17-.31-.57,1.49.32,2.12s3.73,1.75,8-.34c.28-.11,2.87-1.56.46-3.35a5.36,5.36,0,0,0,3,0l-.15,3.3-8.33,2-6.25-1" transform="translate(-619.31 -351)"/></g></svg>