<svg xmlns="http://www.w3.org/2000/svg" viewBox="0 0 660.49 524"><defs><style>.cls-1{isolation:isolate;}.cls-2{fill:#90a359;}.cls-3{fill:#56361b;}.cls-4{fill:#4a2e14;}.cls-5{fill:#3b2215;}.cls-6{fill:#301a0d;}.cls-7{fill:#220f01;}.cls-8{fill:#1d1d1b;opacity:0.22;mix-blend-mode:multiply;}.cls-9{fill:#bfa363;}.cls-10{fill:#a47546;}</style></defs><title>caban2</title><g class="cls-1"><g id="Calque_1" data-name="Calque 1"><path class="cls-2" d="M648.45,348.16s52.49-6.11,59.49,13.89,9,36-19,45-67,20.7-28,29.35,86-2.25,70,20.2-61,51.45-93,45.45-37-34-68-6,0,36.55-39,40.27-81.61,12.28-107.81,0-20.3-12.27-61.25-6.27-69.79,27-103.37,26-107.57-19-113.57-27-82,13-70-11,27.32-43.07,42-49.5S648.45,348.16,648.45,348.16Z" transform="translate(-73.65 -32.08)"/><rect class="cls-3" x="168.28" y="250.97" width="172" height="219"/><polygon class="cls-4" points="168.28 469.97 340.28 469.97 340.28 402.97 168.28 469.97"/><rect class="cls-3" x="429.28" y="219.97" width="103.5" height="98.5"/><path class="cls-5" d="M641.13,172.05H148.67s-34.27,170,0,330H260.28v-165s71.55-61.31,131.57,0l4.52,165h99.86l144.9-117S661.69,239.05,641.13,172.05Zm-45.73,134-79.46,37.5v-67.5l79.46-13Z" transform="translate(-73.65 -32.08)"/><path class="cls-5" d="M315.44,34.05s-78.5,23.23-177.5,138.24h34S313.44,50.22,324.19,40.84C324.19,40.84,325.44,34.05,315.44,34.05Z" transform="translate(-73.65 -32.08)"/><polygon class="cls-5" points="241.78 1.97 421.95 1.97 441.1 13.95 257.22 13.95 241.78 1.97"/><path class="cls-6" d="M172,252.94c36.09,5.83,73.25,5.41,109.71,5.65,18.14.13,36-1.16,54.11-2.26s35.87,2.54,53.92,2.13c9.81-.22,19.3-2.56,29-3.59a66.71,66.71,0,0,1,31.51,4.29c1.8.7,2.58-2.2.79-2.9a68.61,68.61,0,0,0-23.89-4.81c-8.33-.12-16.5,1.62-24.7,2.85-18.46,2.77-36.53-1.18-55-1.32-18.08-.14-36.1,2.47-54.2,2.62-18.62.14-37.27-.17-55.88-.65-21.55-.57-43.3-1.46-64.6-4.9-1.89-.3-2.71,2.59-.8,2.89Z" transform="translate(-73.65 -32.08)"/><path class="cls-6" d="M172.65,297.69c16.58-5.45,33.9-4.28,51-2.62,8.77.86,17.53,1.83,26.34,2.09s17.44-.67,26.21-1.68c18.18-2.09,36.68,1.07,54.86,2.23q28.08,1.79,56.23,2.17,31.59.42,63.17-.93c1.92-.09,1.93-3.09,0-3q-56.24,2.37-112.51-.82-14.28-.83-28.56-2c-9.43-.78-18.85-1.9-28.32-1.13-8.88.73-17.61,2.25-26.55,2.26s-17.58-.85-26.33-1.72c-18.84-1.86-38-3.75-56.32,2.28-1.83.6-1.05,3.49.79,2.89Z" transform="translate(-73.65 -32.08)"/><path class="cls-6" d="M169.68,335.32c5.74,2.95,11.61,2.15,17.81,1.47,7.76-.85,15.61-.74,23.41-.87,15.72-.27,32-1.73,47.61.12,1.92.22,1.9-2.78,0-3-14.4-1.7-29.3-.44-43.77-.19-7,.12-13.92.09-20.86.43-7.36.36-15.79,3-22.68-.55-1.72-.88-3.24,1.7-1.52,2.59Z" transform="translate(-73.65 -32.08)"/><path class="cls-6" d="M392.82,340.51c10.73-3.69,22,1.76,32.86.66,5.48-.55,8.46-4.94,14.4-4,4.23.67,7.91,1.95,12.22,1.22,1.9-.33,1.09-3.22-.8-2.9-5.21.89-10-2-15.23-1.56-4.94.42-7.88,4.41-13.08,4.27-10.2-.27-21.2-4-31.17-.58-1.81.62-1,3.52.8,2.89Z" transform="translate(-73.65 -32.08)"/><path class="cls-6" d="M171.92,382.37c29.34,0,58.68.06,88,0a1.5,1.5,0,0,0,0-3c-29.34.1-58.68.06-88,0a1.5,1.5,0,0,0,0,3Z" transform="translate(-73.65 -32.08)"/><path class="cls-6" d="M394.87,384a62,62,0,0,1,18.24.38c4.3.64,7,.08,11.05-1.14,5.37-1.61,10.17,1.2,15.44,1.91a30.63,30.63,0,0,0,12.59-1.07,1.5,1.5,0,0,0-.79-2.89,29.44,29.44,0,0,1-16.79-.26c-3.94-1.13-7.27-1.9-11.24-.58-5.11,1.69-8.88,1-14.14.43a58.3,58.3,0,0,0-15.16.33c-1.9.27-1.09,3.16.8,2.89Z" transform="translate(-73.65 -32.08)"/><path class="cls-6" d="M171.49,431.56c7.3-4,16.67-2.34,24.66-2.05,7.56.26,15.64-.11,22.93,2.19,5.49,1.73,10.44,6.74,16.53,6.12,3.2-.32,5.89-2.19,8.84-3.31a27.72,27.72,0,0,1,14-1.33c1.89.28,2.71-2.61.8-2.9-6.89-1-12.61.12-19,2.79-3.72,1.57-6.52,2.33-10.44.54-1.5-.68-2.87-1.61-4.32-2.38A34.63,34.63,0,0,0,215,427.69c-7.72-1.28-15.76-1.07-23.55-1.35-7.36-.26-14.79-1-21.47,2.63-1.7.93-.18,3.52,1.51,2.59Z" transform="translate(-73.65 -32.08)"/><path class="cls-6" d="M396.94,433.46c9.19.67,18.42,1.63,27.64,1.84,9,.2,19.29-3.45,27.84-.5,1.83.62,2.62-2.27.8-2.9-8.56-2.94-18,.48-26.82.43-9.82-.05-19.67-1.15-29.46-1.87-1.93-.14-1.92,2.86,0,3Z" transform="translate(-73.65 -32.08)"/><path class="cls-6" d="M398.45,472.82c18.51.76,36.95,1.24,55.44-.36,1.9-.17,1.92-3.17,0-3-18.49,1.6-36.93,1.12-55.44.36-1.94-.08-1.93,2.92,0,3Z" transform="translate(-73.65 -32.08)"/><path class="cls-6" d="M172.64,472.68c.5.46,4.41.28,4.94.32,1.91.15,3.82.34,5.72.54,3.5.38,7,.84,10.48,1.26a207.48,207.48,0,0,0,22.41,1.59c14.8.16,29.47-2.12,44.27-2.09a1.5,1.5,0,0,0,0-3c-19.12,0-37.91,3-57.07,1.5-9.25-.75-18.44-2.5-27.72-2.93-2.37-.11-9.27,1.18-5.15,4.93,1.43,1.3,3.55-.82,2.12-2.12Z" transform="translate(-73.65 -32.08)"/><path class="cls-6" d="M494.07,253.84a6.85,6.85,0,0,0,3.12,3,1.54,1.54,0,0,0,2.05-.53,1.52,1.52,0,0,0-.54-2.06,6.56,6.56,0,0,1-.69-.37,1.94,1.94,0,0,1-.5-.39c-.15-.15-.4-.41-.46-.49a7,7,0,0,1-.39-.64,1.5,1.5,0,1,0-2.59,1.51Z" transform="translate(-73.65 -32.08)"/><path class="cls-6" d="M494.21,253.74l1.57,2.07a1.58,1.58,0,0,0,1.69.69c8.92-2.07,17.93-4.19,26.22-8.2,4.34-2.11,8.35-5.4,13-6.75,5.27-1.53,10.56.93,15.91.5,9.37-.76,18.5-5.13,27.77-6.84a136.57,136.57,0,0,1,32.55-1.93c1.93.11,1.92-2.89,0-3a140.47,140.47,0,0,0-29.62,1.4,135.78,135.78,0,0,0-15.69,3.41c-5.46,1.54-11.1,4.13-16.87,4-4.41-.07-8.65-1.68-13.09-.88-4,.72-7.43,3-10.88,5-9.34,5.4-19.69,8-30.11,10.39l1.69.68-1.57-2.07c-1.15-1.52-3.75,0-2.59,1.52Z" transform="translate(-73.65 -32.08)"/><path class="cls-6" d="M501.21,308.84a14.47,14.47,0,0,1,12.38-3c1.88.4,2.68-2.49.79-2.89a17.7,17.7,0,0,0-15.29,3.82c-1.49,1.24.64,3.35,2.12,2.12Z" transform="translate(-73.65 -32.08)"/><path class="cls-6" d="M595.13,284.88c2.86,1.33,5.44.62,8-1.13,2.36-1.63,4-3.05,7-3.23a20,20,0,0,0,5.66-.69c1.82-.6,1-3.5-.8-2.89-2.87.95-5.94.17-8.78,1.26s-6.12,5.69-9.55,4.08c-1.74-.81-3.26,1.78-1.51,2.6Z" transform="translate(-73.65 -32.08)"/><path class="cls-6" d="M495.55,376.7a10.48,10.48,0,0,0,9.85-.26c3.08-1.54,5.58-3.94,8.76-5.31a63.86,63.86,0,0,1,8.91-2.56c10.8-2.88,18.24-11.91,28.32-16.44s21-6.89,30.38-12.8c10.53-6.64,19.13-19.42,33-17.67,1.91.24,1.89-2.76,0-3-10.42-1.31-18.58,5.22-26,11.57-9.34,7.94-19.5,11.89-30.84,16.09a91.35,91.35,0,0,0-13.17,5.79c-4.65,2.61-8.53,6.18-12.91,9.18-5.33,3.64-11.12,4.33-17.06,6.36-5.36,1.83-11.71,9.44-17.7,6.46-1.72-.86-3.24,1.73-1.51,2.59Z" transform="translate(-73.65 -32.08)"/><path class="cls-6" d="M495.26,412.74c4.28-.17,7.39-2.27,10.7-4.81,2.58-2,5-3.93,8.17-4.85,3-.88,6.24-.78,9.33-1.34,9.93-1.83,18-8.36,25.81-14.3A92.09,92.09,0,0,1,561.89,379c5.53-2.9,11.11-3.44,17.09-4.78,5.82-1.31,11-4.37,16.17-7.18l21.1-11.39c1.7-.92.19-3.51-1.51-2.59L595.4,363.47c-5.81,3.14-11.52,6.69-18.07,8-5,1-9.82,1.61-14.51,3.73a70.52,70.52,0,0,0-12.83,8c-7.82,5.81-15.63,12.88-25.34,15.25-5.3,1.29-10.8.79-15.66,3.63-4.55,2.67-8.08,7.47-13.73,7.69-1.92.07-1.93,3.07,0,3Z" transform="translate(-73.65 -32.08)"/><path class="cls-6" d="M497.47,458.05c10.54-1.71,19.6-7.28,27.51-14.26,9.54-8.4,16.67-19.15,29.26-23.28,10.68-3.5,19.93-6.6,29-13.62,10.75-8.37,21-19.55,35.69-19.33,1.93,0,1.93-3,0-3-11.74-.18-21.21,6.49-29.88,13.69-5.1,4.23-10.12,8.54-15.86,11.9s-11.83,5.06-18.12,7c-11.65,3.54-18.62,11.25-27,19.63-8.74,8.78-18.9,16.37-31.39,18.39-1.9.31-1.1,3.2.79,2.9Z" transform="translate(-73.65 -32.08)"/><path class="cls-7" d="M130.44,172.32s-2,324,4,330c0,0,13,6,38,0,0,0,6.5-295,0-330C172.44,172.32,151.94,150.82,130.44,172.32Z" transform="translate(-73.65 -32.08)"/><path class="cls-7" d="M468.85,170.75s-324-2.26-330,4.52c0,0-6,14.69,0,42.94,0,0,295,7.34,330,0C468.85,218.21,490.35,195,468.85,170.75Z" transform="translate(-73.65 -32.08)"/><path class="cls-7" d="M495.94,171.44s63-4.5,126.5-.56l7,30.39s-125,10.69-136,3.37Z" transform="translate(-73.65 -32.08)"/><path class="cls-7" d="M409.44,502.05,406.9,338.16s-68.46-90.22-163,1.58l-2,162.31h23l.5-153.89s65.5-74.4,119,0V502.05Z" transform="translate(-73.65 -32.08)"/><path class="cls-5" d="M315.44,34.05s78.5,23.23,177.5,138.24h-34S317.43,50.22,306.69,40.84C306.69,40.84,305.44,34.05,315.44,34.05Z" transform="translate(-73.65 -32.08)"/><path class="cls-5" d="M495.6,34.05s50.34,23.23,149.34,138.24h-34S491.09,45.42,480.34,36C480.34,36,485.6,34.05,495.6,34.05Z" transform="translate(-73.65 -32.08)"/><path class="cls-7" d="M453.69,173.66s-2,324,4,330c0,0,13,6,38,0,0,0,6.5-295,0-330C495.69,173.66,475.19,152.16,453.69,173.66Z" transform="translate(-73.65 -32.08)"/><path class="cls-8" d="M167.28,171.13S405,241.6,453.36,368V168.5Z" transform="translate(-73.65 -32.08)"/><path class="cls-9" d="M453.11,179.34h0Z" transform="translate(-73.65 -32.08)"/><path class="cls-9" d="M459.19,180.84a8.58,8.58,0,0,0,1.13.46Z" transform="translate(-73.65 -32.08)"/><path class="cls-9" d="M437.87,176.09a4,4,0,0,0-.49-.56Z" transform="translate(-73.65 -32.08)"/><path class="cls-9" d="M463.78,176.75c-.14-.16-.28-.32-.43-.47A3.09,3.09,0,0,0,463.78,176.75Z" transform="translate(-73.65 -32.08)"/><path class="cls-9" d="M324.11,179.34h0Z" transform="translate(-73.65 -32.08)"/><path class="cls-9" d="M330.19,180.84a8.58,8.58,0,0,0,1.13.46Z" transform="translate(-73.65 -32.08)"/><path class="cls-9" d="M187.34,150.87a7.81,7.81,0,0,0-1.15.43C186.58,151.14,187,151,187.34,150.87Z" transform="translate(-73.65 -32.08)"/><path class="cls-9" d="M338.22,60.88a10.12,10.12,0,0,0-.61-1.07C337.83,60.18,338,60.53,338.22,60.88Z" transform="translate(-73.65 -32.08)"/><path class="cls-9" d="M457.46,172.29c3.64.21,9.9.21,13-1.91a91.79,91.79,0,0,1-9.52-.95c-.61-2.62-3.68-16.49-1.72-19.79,0,0-5,9.45-4.42,13.15,0,0-2.49-18.09-8.37-21.42,0,0,5.11,12.48,2.65,16,0,0-14.89-16.49-15.75-21.66a101.83,101.83,0,0,0,2.25,13.56s-4.68-11.39-10.67-18.5c0,0,2,7.27,1.59,9.61s-7.31-8.92-6.24-11.63c0,0-3.37-.46-4.93.82s-5.57-20.62-3.58-21.58c0,0-7.18,5.29-6.47,11.67,0,0-4.38-14.44-7.76-15.78,0,0,4,11.12,2.31,13.94,0,0-6.27-13.41-7.32-21.22,0,0-1.16,11.35.56,16.38,0,0-6.65-12.58-13.32-18.44,0,0,5.09,7.77,4.12,11.1,0,0-8.11-12.21-10.55-17.77,0,0-.58,4.16,3.89,14.31,0,0-9-18.4-11.75-20.48,0,0,5.44,10.68,4.55,12.2,0,0-8.06-15.8-11.76-18.22,0,0,5.23,8.63,5.29,11.28s-7.84-9.85-7.37-11.57c0,0-4.06-.65-4.19,2.48-.17-2.78-1.26-12.67-7.75-17.23,0,0,6.67,8.14,4.18,13.75,0,0-3.29-4.52-2.79-5.36a5.54,5.54,0,0,0-1.53,4.49h0c-.14-.72-1.21-6.31-2-7.65.08.16.3.86-1,1.52a33.3,33.3,0,0,0-2.79-6.48c.45.94.86,2.27.06,3,0,0-4-5.63-3.13-9.7,0,0-3.13,3.56-3.07,7.09-.15-1-.76-3.36-3.28-7.18,0,0,.88,2.26,0,3.8,0,0-4-7.31-4-10.36a3.43,3.43,0,0,0-3.64,3.27s-3-8.37.68-11.14a8.72,8.72,0,0,0-3,3.24,13.81,13.81,0,0,0,.64-4.5s-2.67,5.57-4.53,6c0,0-.42-4.33,1.55-5.54,0,0-4-.47-2.46,7.12l1.22,1.85-.32-.28s-17,1.22-20.25-1.52c0,0,8.5,6.52,12.25,6.52,0,0-18.25-.5-22.5,4.75,0,0,13.14-3,16.2,0,0,0-18.7,12-23.95,12a103.65,103.65,0,0,0,13.75,0s-12,2.75-20,7.5c0,0,7.5-.75,9.75,0s-10,5.75-12.5,4.25c0,0-1,3.25,0,5s-21.25,2.12-21.88,0c0,0,4.05,8,10.46,8.29,0,0-15,2-16.83,5.08,0,0,11.62-2.12,14.12,0,0,0-14.25,4-22.12,3.75,0,0,11,3,16.25,2.13,0,0-13.5,4.5-20.38,10.12,0,0,8.5-3.75,11.63-2.25,0,0-13.38,6-19.25,7.5,0,0,4,1.25,14.75-1.5,0,0-19.63,5.88-22.13,8.25,0,0,11.43-3.62,12.78-2.5,0,0-16.9,5.38-19.9,8.63,0,0,9.37-3.75,12-3.38s-11,6.13-12.63,5.38c0,0-1.3,3.9,1.76,4.53-2.76-.27-12.7-.82-18.26,4.84,0,0,9.13-5.25,14.25-1.87,0,0-5,2.5-5.75,1.87a5.53,5.53,0,0,0,4.25,2.25s-6.4.12-8,.74c.18,0,.9-.16,1.34,1.26a34.18,34.18,0,0,0-6.85,1.7c1-.29,2.37-.48,2.93.43,0,0-6.21,3-10.08,1.5,0,0,3,3.66,6.49,4.18-1,0-3.44.2-7.62,2.07,0,0,2.38-.5,3.75.62,0,0-7.87,2.75-10.87,2.25a3.43,3.43,0,0,0,2.62,4.13s-8.75,1.62-10.87-2.5a8.71,8.71,0,0,0,2.7,3.49,14,14,0,0,0-4.33-1.37s5.06,3.55,5.22,5.46c0,0-4.34-.29-5.22-2.44,0,0-.91,3.24,4.8,3.58,2.62,2.1,12.88,10.56,13.38,14.23,0,0-1.93-10.53-4.71-13.05,0,0,13.2,12.62,19.87,11.58,0,0-11.76-6.6-12-10.87,0,0,21.92,3.65,25.81,7.18A103.24,103.24,0,0,0,199,172.11s10.74,6,19.86,7.86c0,0-6.07-4.48-7.23-6.54s11.27,2.45,12.12,5.24c0,0,2.92-1.74,3.36-3.71s17.17,12.69,16.21,14.68c0,0,2.34-8.61-2.19-13.16,0,0,12.41,8.59,15.89,7.53,0,0-10-6.23-10.47-9.48,0,0,13.25,6.6,18.92,12.07,0,0-6.14-9.61-10.62-12.48,0,0,13,5.72,21.9,6.17,0,0-8.82-2.93-10.13-6.14,0,0,13.94,4.53,19.31,7.36,0,0-2.13-3.61-11.94-8.79,0,0,18.49,8.82,21.93,8.74,0,0-10.9-5-11.14-6.72,0,0,16.13,7.36,20.54,7,0,0-9.47-3.51-11.16-5.55-1.09-1.31,4.26.23,8.43,1.94,3.23,3,6.37,6.42,6.64,8.41,0,0-.56-3.06-1.51-6.27a3.78,3.78,0,0,0,1.66-2.58c4.45,3.57,10.94,8,15,7.38l-.48-.28a12.61,12.61,0,0,0,1.74,0,27.27,27.27,0,0,1-3.49-1.07,40.5,40.5,0,0,1-8.08-6.36,5.88,5.88,0,0,1-.26-.74s5.39,1.5,5.53,2.47a5.54,5.54,0,0,0-1-3.8l.29.06c1.48,1.24,4.35,3.58,5.49,4-.16-.09-.77-.49-.14-1.84a33.32,33.32,0,0,0,6.22,3.34c-.94-.46-2.09-1.24-1.89-2.28,0,0,6.61,1.94,8.48,5.65a16.13,16.13,0,0,0-.41-4,8.08,8.08,0,0,1,1.83,1.14s-.77-.82-2.12-2.14a7.71,7.71,0,0,0-1.3-2.45c.75.72,2.68,2.17,7,3.59,0,0-2-1.2-2.34-2.92l.91.35c2.1.94,7.15,3.34,8.64,5.22a3.42,3.42,0,0,0,.82-4.82s7.58,4.67,6.39,9.15a8.72,8.72,0,0,0,.33-4.4,14,14,0,0,0,2.3,3.92s-1.37-6-.2-7.55c0,0,3,3.13,2.22,5.31,0,0,3.46-2.15-2.49-7.12l-3.07-1a3.86,3.86,0,0,0,.8-1.52c.43-2,17.17,12.69,16.21,14.68,0,0,2.34-8.61-2.19-13.16,0,0,12.41,8.59,15.89,7.53,0,0-10-6.23-10.47-9.48,0,0,13.25,6.6,18.92,12.07,0,0-6.14-9.61-10.62-12.48,0,0,13,5.72,21.9,6.17,0,0-8.82-2.93-10.13-6.14,0,0,13.94,4.53,19.31,7.36,0,0-2.13-3.61-11.94-8.79,0,0,18.49,8.82,21.93,8.74,0,0-10.9-5-11.14-6.72,0,0,16.13,7.36,20.54,7,0,0-9.47-3.51-11.16-5.55s12.26,2.84,13,4.49c0,0,3.59-2,1.74-4.55l-.49-.56a4,4,0,0,1,.49.56c1.86,2.06,8.86,9.14,16.79,8.67,0,0-10.29-2.23-11.83-8.17,0,0,5.39,1.5,5.53,2.47a5.56,5.56,0,0,0-1.64-4.52s4.82,4.2,6.39,4.8a.8.8,0,0,1-.33-.38l.33.38-.2-1.67s6.35-7.46,10.44.83C463.35,178.5,463.76,173.45,457.46,172.29Zm-271.72-7.24h-.81l1.57-.7Zm271,3.45Z" transform="translate(-73.65 -32.08)"/><path class="cls-10" d="M310.47,155.1c1.65,0,2.23-2.11.26-2.11-1.65,0-2.23,2.11-.26,2.11Z" transform="translate(-73.65 -32.08)"/><path class="cls-8" d="M501.19,174.51l113.24-4.07,6.45,231.12-19.46,15.55S645.81,166.11,501.19,174.51Z" transform="translate(-73.65 -32.08)"/><path class="cls-9" d="M489.63,181.63c-.58.12-.94.17-.94.17A2.14,2.14,0,0,0,489.63,181.63Z" transform="translate(-73.65 -32.08)"/><path class="cls-9" d="M489.15,36.48c.68-.11,1.11-.16,1.11-.16A2.9,2.9,0,0,0,489.15,36.48Z" transform="translate(-73.65 -32.08)"/><path class="cls-9" d="M563.73,97.87a2.24,2.24,0,0,0-.29-.57S563.56,97.5,563.73,97.87Z" transform="translate(-73.65 -32.08)"/><path class="cls-9" d="M507.18,43.89l-.46.55A2.44,2.44,0,0,0,507.18,43.89Z" transform="translate(-73.65 -32.08)"/><path class="cls-9" d="M398.58,109.46a2.87,2.87,0,0,0,.35.55S398.79,109.82,398.58,109.46Z" transform="translate(-73.65 -32.08)"/><path class="cls-9" d="M614.43,170.44l-.19-.17a27.8,27.8,0,0,0,5.2-2.51s-3,.88-6.34,1.54L610.36,167c-.7-3.92,7.83-6.07,7.83-6.07-3.74-2.23-9.06-.49-11.57.57,3-2.5,4.32-11.15,4.32-11.15-1.75,8.5-12.56,4.6-12.56,4.6l3.31-4.85-7,2V147.3c-5.25,2.25-6.92-3.6-6.92-3.6-2.57-2.71,6.92-2.4,6.92-2.4-4.5-3.75-11.51-2.45-11.51-2.45,8-2.69,7-2.8,7-2.8-4,2-14.25-2.25-14.25-2.25a12.34,12.34,0,0,0,9-6.25c-5.75.25-14.45-2.07-14.45-2.07-.94-4.06,14.45-4.43,14.45-4.43-7.75-6-21.5-2-21.5-2,3-.75,1.2-5.75,1.2-5.75s-4.2,5-3.88,1.94,5.68-4.44,5.68-4.44c-2-.25-8.1,1.89-8.1,1.89,7.78-7.13,6.17-13,5.39-14.82.37,1,.68,3.43-2,7.43a7,7,0,0,1-9.25,2.5c-1-2.25,3.75-4.75,3.75-4.75-2.5-2.5-9.75,0-9.75,0,3.25-1.75,4.75-10,4.75-10-1.75,4-7.75,6.5-9.81,1.83s5.81-3.08,5.81-3.08a11.37,11.37,0,0,0-6.66-2A22.37,22.37,0,0,0,551.19,77.3s-3.25,6.5-12.75,8.25-8.69-4.61-8.69-4.61c1-2.75,5.41-3.43,5.41-3.43a74.6,74.6,0,0,0-11.43-.93l13.95-2.92c-3.18.67-16.53-2.41-16.53-2.41,2.79-1.61,21.64-1.21,21.64-1.21-4.69-3.43-24.88-1.71-30.28-1.18l-.06-.07c5-1,15.43-5.34,15.43-5.34-8.27,2-16.8-.57-16.8-.57,1.46-3.62,15.67-4.81,15.67-4.81a24.15,24.15,0,0,0-22.05-.41c1.82-1,5.17-7,5.17-7-1.55,2.37-9.41,6.31-8.69,3.61s5.7-3.24,5.7-3.24c-3.23-.85-7.17,1-8.26,1.63,2.13-1.22,6.66-6.47,8.1-8.18-2.24,2.2-9.68,5.18-11.36,5.84l-.75-.82c-1.49-4.69,6.42-5.67,6.42-5.67a9.71,9.71,0,0,0-5.7-1.36,9.56,9.56,0,0,0,3.36-5.94s-9.51,10.3-17,7.74c0,0,4.12-6.66,7.48-7.75-2.44.4-8.28,1.69-10.5,5.15,0,0-2.67-3.84-2.93-5.59s-1.17.53-.15,7.45c0,0-4.31-2.64-4.53-6.23,0,0-.41,6.15-2.73,5.84s-5.77-2.33-5.73-4.68-3.25,3-4.16,4.73c0,0-18-2.32-21.07-8.43,0,0-.08,4.94,2.54,8.25-4.56-2.62-11.6-6.23-16.53-6.65,0,0,12.28,5.52,11.46,8.66l-3.16,0c-2.71-.63-6.63-1.84-8.4-3.78,0,0-2.1,1.83-2.13,3.74h-.5c-1.5-1-5.79-4.07-6.67-6.2,0,0-1.54,3.29-.5,5.67-.91-1.53-3.54-5.24-7.88-6.12,0,0,6.27,5.1,5.52,6.61h-2c-2.78-1.21-7.32-5.28-7.27-7.76,0,0-3.28,3.92-3,6.58,0,0-2.51-5.56-6.58-5.4,0,0,3.12,4.21,1.06,5.29s-12.95-6.91-11.71-10.93c0,0-3.81,7.46-.3,10.69,0,0-12.23-9.44-16.3-9.48,0,0,7.71,6.69,4.78,8.32s-16.46-6.3-16.38-10.09c0,0-.28,5.61,1.52,8.75-2.4-1.73-6-4.06-9.17-4.84,0,0,6.42,4.88,4.29,6.72,0,0-6-4.09-6.05-5.39,0,0,.45,6.49,3.05,7.26a16.71,16.71,0,0,0-2.13.42l-.58-.09a2.25,2.25,0,0,1,.12.21,34,34,0,0,0-6.49,2.56s2.56-.62,5.79-1.17l.48,1.9c-1.78,2.54-6.57,4.32-6.57,4.32,4,1.82,9.05-.49,11.43-1.81C346.33,53.73,346,62.47,346,62.47c.81-8.64,12-5.94,12-5.94l-2.76,5.19L361.93,59l.52,4.72c5-2.8,7.26,2.83,7.26,2.83,2.85,2.41-6.61,3.14-6.61,3.14,4.88,3.24,11.7,1.18,11.7,1.18-7.65,3.54-6.66,3.55-6.66,3.55,3.44-2.22,12.65.2,14.19.63l.11.09a12.35,12.35,0,0,0-8.16,7.16c5.69-.87,14.58.48,14.58.48,1.38,3.94-13.87,6-13.87,6,8.35,5.12,21.59-.34,21.59-.34-2.91,1.07-.58,5.84-.58,5.84s3.64-5.42,3.65-2.35-5.16,5-5.16,5c2,0,7.84-2.76,7.84-2.76-7,7.94-4.72,13.6-3.75,15.31-.48-1-1.05-3.33,1.23-7.6a7,7,0,0,1,8.92-3.48c1.24,2.12-3.21,5.12-3.21,5.12,2.43,2,8.1-.35,9.41-.93l.07.06c-2.85,2.33-3.43,10.27-3.43,10.27,1.31-4.16,7-7.3,9.55-2.89s-5.43,3.7-5.43,3.7a11.28,11.28,0,0,0,6.82,1.25,22.4,22.4,0,0,0-9.23,13.6s2.53-6.81,11.78-9.58,9.13,3.63,9.13,3.63c-.65,2.84-5,4-5,4a74.62,74.62,0,0,0,11.46-.32l-13.55,4.42c3.09-1,16.7.6,16.7.6-2.6,1.9-21.39,3.55-21.39,3.55,4.62,2.66,21.71-.39,28.62-1.78l.27.23c-5.16,2-13.35,6.48-13.35,6.48,8-2.87,16.77-1.25,16.77-1.25-1.06,3.76-15.06,6.48-15.06,6.48a24.12,24.12,0,0,0,22-2c-1.7,1.25-4.37,7.57-4.37,7.57,1.28-2.53,8.66-7.3,8.25-4.53s-3.85,6.81-3.85,6.81c2.54.38,4.69-2.19,5.87-4-.9,3.36-.29,10.25-.29,10.25,1.08-2.28,9.65-2.3,11.94-2.27l1,.88c1.76,4.28-8,4.14-8,4.14,6.95,2.8,15.89,9,17.3,10-2.8,1.54-7.74,4.93-8.09,9.9,0,0,8-10.24,14.5-7.89,0,0-3.43,6.59-6.31,7.72,2.09-.44,7.1-1.82,8.94-5.24,0,0,2.37,3.7,2.62,5.41s1-.54,0-7.29c0,0,3.75,2.5,4,6,0,0,.25-6,2.25-5.76s5,2.17,5,4.47,2.74-3,3.5-4.71c0,0,15.5,1.93,18.25,7.84,0,0,0-4.83-2.33-8,4,2.48,10.08,5.87,14.33,6.18,0,0-11.19-5.42-9.93-8.46h1.86c2.3.49,6.33,1.63,8.07,3.71,0,0,1.76-1.85,1.74-3.71h.44c1.28.94,5.06,3.87,5.85,5.95,0,0,1.27-3.25.34-5.56.81,1.48,3.13,5.06,6.88,5.84,0,0-5.19-4.61-4.91-6.23h2.09c2.43,1.3,6.07,5,6.07,7.29,0,0,2.75-3.9,2.5-6.49,0,0,2.25,5.38,5.75,5.15,0,0-2.76-4.05-1-5.15s11.25,6.5,10.25,10.45c0,0,3.14-7.36.07-10.45,0,0,10.68,9,14.18,9,0,0-6.75-6.39-4.25-8s14.25,5.84,14.25,9.54c0,0,.14-5.49-1.46-8.52,2.09,1.65,5.25,3.85,8,4.56,0,0-5.6-4.65-3.8-6.49,0,0,5.25,3.88,5.29,5.15,0,0-.49-6.33-2.74-7a13.93,13.93,0,0,0,2-.51Z" transform="translate(-73.65 -32.08)"/><path class="cls-7" d="M614.43,170.44s1.42,227,6.45,231.12c0,0,11-3.24,26.8-13.24,0,0,4.45-196.82-1-221.06C646.68,167.26,632.43,155.55,614.43,170.44Z" transform="translate(-73.65 -32.08)"/></g></g></svg>