<svg xmlns="http://www.w3.org/2000/svg" xmlns:xlink="http://www.w3.org/1999/xlink" viewBox="0 0 555.22 311.75"><defs><style>.cls-1{isolation:isolate;}.cls-2{fill:#57932b;}.cls-3{fill:#533212;}.cls-4{fill:#3f2211;}.cls-5,.cls-8{fill:#1d1d1b;}.cls-5{opacity:0.2;mix-blend-mode:multiply;}.cls-6{fill:url(#linear-gradient);}.cls-7{fill:#893113;}.cls-9{fill:#9b7714;}.cls-10{fill:#d1b802;}.cls-11{fill:#dde6a1;}.cls-12{fill:#6f6f6e;}.cls-13{fill:url(#linear-gradient-2);}.cls-14{fill:#ded7d8;}.cls-15{fill:#f5c5dd;}.cls-16{fill:#100d07;}.cls-17{fill:#9f6d14;}.cls-18{fill:url(#linear-gradient-3);}.cls-19{fill:#f8c2a5;}.cls-20{fill:#30190f;}.cls-21{fill:none;stroke:#6f6f6e;stroke-miterlimit:10;}</style><linearGradient id="linear-gradient" x1="455.16" y1="342.91" x2="450.82" y2="340.41" gradientUnits="userSpaceOnUse"><stop offset="0" stop-color="#8f6954"/><stop offset="0.22" stop-color="#715240"/><stop offset="0.57" stop-color="#493325"/><stop offset="0.84" stop-color="#302014"/><stop offset="1" stop-color="#27190e"/></linearGradient><linearGradient id="linear-gradient-2" x1="209.16" y1="224.63" x2="224.9" y2="232.28" gradientTransform="matrix(-1, 0, 0, 1, 642, 0)" gradientUnits="userSpaceOnUse"><stop offset="0" stop-color="#fce7e7"/><stop offset="1" stop-color="#b8b8b7"/></linearGradient><linearGradient id="linear-gradient-3" x1="656.42" y1="313.17" x2="654.54" y2="312.08" gradientTransform="matrix(-1, 0, 0, 1, 886.82, 0)" gradientUnits="userSpaceOnUse"><stop offset="0" stop-color="#e79500"/><stop offset="1" stop-color="#623d09"/></linearGradient></defs><title>elevage</title><g class="cls-1"><g id="Calque_1" data-name="Calque 1"><path class="cls-2" d="M192.67,296.19c5.33,20.79-48,45.88-86,45.17s-48.67,71,52,54.49S283.33,355.7,290,381.51s59.33,28,113.33,7.17,51.34-5,64.67,7.89,94.67-10,58.67-53.06-44-75.29-18-70.27,128,24.07,126-.51-121.34-49-87.34-63.66,72-35.49,44.67-45.53-90.67-6.45-119.67,10-71.94-10-88.8-19.36S316,152.78,304,173.58s-51.33,30.73-59.33,19.67-64.55,13.18-61.94,30.81S192.67,296.19,192.67,296.19Z" transform="translate(-79.47 -90.99)"/><path class="cls-3" d="M146.67,374.33H132s3.67-140,0-147.66c7.33-9,14.67,0,14.67,0C142.67,237.33,146.67,374.33,146.67,374.33Z" transform="translate(-79.47 -90.99)"/><path class="cls-3" d="M333.33,189.67h-10s2.5-91.09,0-96.08c5-5.85,10,0,10,0C330.61,100.53,333.33,189.67,333.33,189.67Z" transform="translate(-79.47 -90.99)"/><path class="cls-3" d="M232.83,249h-10s2.5-91.09,0-96.07c5-5.86,10,0,10,0C230.11,159.89,232.83,249,232.83,249Z" transform="translate(-79.47 -90.99)"/><path class="cls-3" d="M523.5,249h-10s2.5-91.09,0-96.07c5-5.86,10,0,10,0C520.77,159.89,523.5,249,523.5,249Z" transform="translate(-79.47 -90.99)"/><path class="cls-3" d="M446.67,189.67h-10s2.5-91.09,0-96.08c5-5.85,10,0,10,0C443.94,100.53,446.67,189.67,446.67,189.67Z" transform="translate(-79.47 -90.99)"/><path class="cls-3" d="M560,189.67H550s2.5-91.09,0-96.08c5-5.85,10,0,10,0C557.27,100.53,560,189.67,560,189.67Z" transform="translate(-79.47 -90.99)"/><path class="cls-3" d="M323.67,374.33H309s3.67-140,0-147.66c7.33-9,14.67,0,14.67,0C319.67,237.33,323.67,374.33,323.67,374.33Z" transform="translate(-79.47 -90.99)"/><path class="cls-3" d="M487,374.33H472.33s3.67-140,0-147.66c7.34-9,14.67,0,14.67,0C483,237.33,487,374.33,487,374.33Z" transform="translate(-79.47 -90.99)"/><path class="cls-3" d="M145.4,245.76c9.34,11.94,19.08,22.63,34.6,25.58,16.62,3.16,34.69,3.82,51.58,3.53,29.35-.5,60.36-8.83,78.68-33.4,1.16-1.54-1.45-3-2.59-1.51-18.06,24.21-49.26,31.72-78,31.94-15.79.12-32.44-.57-48-3.3s-24.89-13.16-34.12-25c-1.19-1.52-3.3.62-2.12,2.12Z" transform="translate(-79.47 -90.99)"/><path class="cls-4" d="M377,303.21a19.61,19.61,0,0,0,5.11-.9,18.44,18.44,0,0,1,11.11-1.05s2.1.45,13.52-2.4c0,0,17.28-5.11,38.61,4.35,0,0,14.42,7.66,10.66,24,0,0-.45,8.26-1.65,10.21s-6.31,7.36-6.31,7.36c-2.4.6-18.48,2-22.68,2.41s-6.61,1.5-5.71,0c0,0-6.16,2.1-3.61-2.56,0,0-8.86,2-14.42,0,0,0-6.76,1.5-8.86.45s-6.61,2.41-12.47,1.66c0,0-2.7,1.2-3.3-.45,0,0-6.46.75-5.56-.61a6.46,6.46,0,0,0,1-2.4,9.23,9.23,0,0,1-3.6,1.05c-1.66,0-3.46-.15-3.46-.75s2.85-3.75,4.21-4.2-6.31-5.41-7.36-7.52-4.81-4.8-4.51-6.6Z" transform="translate(-79.47 -90.99)"/><path class="cls-5" d="M377.86,303.15a13.83,13.83,0,0,0,2.25-.3s-8.81,27.4-19.59,26.78c0,0-3.08-3.13-2.78-4.33Z" transform="translate(-79.47 -90.99)"/><path class="cls-4" d="M360.9,295s-.49,1.35-3.18,1.65-7,1.66-8.24,3.31L340,316.13s.61,1.8,1.51,1.8c0,0,1.05,4.51,5.25,4.81,0,0,3.31,3.46,6.46,1.35s4.44.48,4.51,1.21,1.35.15,4.21-2.56,15.76-11.39,15.91-19.59c0,0-3.15-4.89-4.35-4.89,0,0,1.81-8.12,3-9.17s4.05-19.22-.3-19.68a1.74,1.74,0,0,0-1.81,1.36s-2.55-2.87-3.9-1.36c0,0-5.86,4.66-7.06,10.07C363.45,279.48,360.74,293.15,360.9,295Z" transform="translate(-79.47 -90.99)"/><path class="cls-5" d="M407.16,329.05s-2.25,2.71-.75,4.66-6.91,4.65-9.31,4.65-5.86,5.41-4.36,6.76a15.77,15.77,0,0,0,8.86-.45s10.37,1.21,14.42,0c0,0,2.26-4.5,3.61-4.5a69.59,69.59,0,0,0,6.91-1.2v-2.86a16.53,16.53,0,0,1-4.51,1.8c-2.25.45-6.91,2.56-7.21,4.06s-13.67.15-12.47-1.5,5.26-4.66,6.16-5.41S406.72,333.71,407.16,329.05Z" transform="translate(-79.47 -90.99)"/><path class="cls-6" d="M454.33,337.46s3.15,2,0,4.66c0,0,1.7-.15.7.9s-6.37,1.12-6.37,1.12Z" transform="translate(-79.47 -90.99)"/><path class="cls-5" d="M382.83,337.46s-1.51,2.17-1.21,3.34-6-.48-9.16,2.52c0,0,.15-3.15,6.91-3.75A31.23,31.23,0,0,1,382.83,337.46Z" transform="translate(-79.47 -90.99)"/><path class="cls-5" d="M369.61,339.42s2,2.78,4.44,1.71c0,0-2.06,1.41-1.69,2.19,0,0-3.85-2.63-4.61-2.4S369.31,339.29,369.61,339.42Z" transform="translate(-79.47 -90.99)"/><path class="cls-5" d="M374.41,270.77s-7.88,8.93-7.88,10.89c0,0-2.48,10.66-1,15.17a12.6,12.6,0,0,0-3.08-.9c-.67.07,1.2-17.13,3.38-18.85S373.89,270.24,374.41,270.77Z" transform="translate(-79.47 -90.99)"/><path class="cls-7" d="M376.59,270.73c-.07-.12-3.6,6.95-4,8.3s-1.21,6.68-2,7.89-.6,6.23,0,8.33a90.27,90.27,0,0,1,3.83-9.24C375.77,283.69,378.47,273.7,376.59,270.73Z" transform="translate(-79.47 -90.99)"/><path class="cls-7" d="M340.69,316.36a14.3,14.3,0,0,0,2.55-1c.3-.3.23,2.06-.67,2.55S342,315.83,340.69,316.36Z" transform="translate(-79.47 -90.99)"/><path class="cls-8" d="M354.89,302.76s4.13-1.12,4.88.75c0,0,0,3.27-3.91,2.95C355.86,306.46,354.06,305.39,354.89,302.76Z" transform="translate(-79.47 -90.99)"/><path class="cls-9" d="M345.46,351.91" transform="translate(-79.47 -90.99)"/><path class="cls-10" d="M347,347h.17" transform="translate(-79.47 -90.99)"/><path class="cls-10" d="M346.41,346.2" transform="translate(-79.47 -90.99)"/><path class="cls-11" d="M347.26,346.65" transform="translate(-79.47 -90.99)"/><line class="cls-12" x1="266.82" y1="256.93" x2="265.9" y2="256.93"/><line class="cls-12" x1="284.52" y1="256.93" x2="283.6" y2="256.93"/><line class="cls-12" x1="296.33" y1="256.93" x2="295.4" y2="256.93"/><line class="cls-12" x1="302.23" y1="256.93" x2="301.3" y2="256.93"/><line class="cls-12" x1="314.03" y1="256.93" x2="313.11" y2="256.93"/><line class="cls-12" x1="319.93" y1="256.93" x2="319.01" y2="256.93"/><line class="cls-12" x1="325.83" y1="256.93" x2="324.91" y2="256.93"/><line class="cls-12" x1="331.73" y1="256.93" x2="330.81" y2="256.93"/><line class="cls-12" x1="337.63" y1="256.93" x2="336.71" y2="256.93"/><line class="cls-12" x1="349.43" y1="256.93" x2="348.51" y2="256.93"/><line class="cls-12" x1="355.33" y1="256.93" x2="354.41" y2="256.93"/><line class="cls-12" x1="367.13" y1="256.93" x2="366.21" y2="256.93"/><line class="cls-12" x1="373.03" y1="256.93" x2="372.11" y2="256.93"/><line class="cls-12" x1="378.93" y1="256.93" x2="378.01" y2="256.93"/><path class="cls-3" d="M143.91,308.9c13.54,30.84,53.75,28.83,81.65,27.39,17.6-.9,35.58-2.25,52.88-5.75,13-2.63,27.06-8,32.49-21.12.74-1.78-2.16-2.56-2.89-.8-5.74,13.88-22.62,17.88-35.94,20a437.17,437.17,0,0,1-48.47,4.75c-26.49,1.25-64.32,3.17-77.13-26-.78-1.76-3.36-.24-2.59,1.52Z" transform="translate(-79.47 -90.99)"/><path class="cls-3" d="M221.9,168.32c.19,12.48-3.09,25.62-7.48,37.26A63.09,63.09,0,0,1,197.07,231c-14.77,13-35.26,19-54.63,15.38-1.89-.36-2.7,2.53-.8,2.89,20.05,3.79,40.91-2.14,56.49-15.23a64.74,64.74,0,0,0,18.21-25.16c5.11-12.53,8.77-27,8.56-40.57,0-1.93-3-1.93-3,0Z" transform="translate(-79.47 -90.99)"/><path class="cls-3" d="M222.31,199c1.49,20.56-2.81,42.48-19.31,56.31a192.23,192.23,0,0,1-28.1,19c-10.39,5.93-21.5,10.33-33.58,10.69-1.92.05-1.93,3.05,0,3,11.71-.35,22.63-4.28,32.84-9.84a190.4,190.4,0,0,0,31-20.7c17.05-14.29,21.72-37.14,20.18-58.43-.13-1.91-3.14-1.93-3,0Z" transform="translate(-79.47 -90.99)"/><path class="cls-3" d="M225.26,163.89c5,7.05,17.29,1.44,23.4-1,10.73-4.28,20.48-10.58,29.82-17.32,10.15-7.31,20.15-14.89,30.06-22.52,8.1-6.24,15.58-13,19.51-22.67.73-1.79-2.17-2.57-2.89-.8-3.81,9.34-11.58,15.87-19.4,21.85q-12.24,9.34-24.62,18.5a197.72,197.72,0,0,1-22.92,15.13,91.43,91.43,0,0,1-14.33,6.4c-3.72,1.27-13,5.18-16,.9-1.1-1.56-3.71-.06-2.59,1.52Z" transform="translate(-79.47 -90.99)"/><path class="cls-3" d="M227.92,195.18c9.75,1.9,19.52-1.82,28.63-5a225,225,0,0,0,28.56-12.28,198.65,198.65,0,0,0,26.55-16.17c6.86-5,12.85-10.86,15.79-19,.66-1.81-2.24-2.6-2.89-.79-3.12,8.62-10.27,14.42-17.6,19.45a214.23,214.23,0,0,1-23.37,13.92,217,217,0,0,1-25.36,11.09c-9.11,3.31-19.69,7.8-29.51,5.89-1.89-.37-2.69,2.52-.8,2.89Z" transform="translate(-79.47 -90.99)"/><path class="cls-3" d="M328.59,107.67c7.13,4.14,15.12,4.8,23.21,4.83,10.45,0,20.92-.38,31.35-1s21.08-1.53,31.57-2.72c8.21-.93,16.48-1.77,23.75-6a1.5,1.5,0,0,0-1.52-2.59c-7.89,4.59-17.28,5.06-26.17,6q-13.78,1.48-27.63,2.29t-27.71,1c-8.71.09-17.57.12-25.33-4.39a1.5,1.5,0,0,0-1.52,2.59Z" transform="translate(-79.47 -90.99)"/><path class="cls-3" d="M441.66,103.91c6.58,4.83,14.65,5.74,22.56,6.43a232.61,232.61,0,0,0,30.9.61,239.48,239.48,0,0,0,59.3-10.4c1.84-.57,1.06-3.46-.8-2.89A236,236,0,0,1,497,107.86a233.14,233.14,0,0,1-28.1-.17c-8.82-.58-18.33-1-25.71-6.37-1.56-1.14-3.06,1.46-1.52,2.59Z" transform="translate(-79.47 -90.99)"/><path class="cls-3" d="M332.44,139.28c3.82,7.19,10.34,11.29,18.37,12.25,10.31,1.23,21.36.18,31.67-.69,19.57-1.64,38.91-5.82,56.42-15,1.71-.9.19-3.49-1.52-2.59-16,8.36-33.57,12.48-51.43,14.26-8.39.83-16.82,1.19-25.25,1.29-10.37.13-20.29-.91-25.66-11-.91-1.71-3.5-.19-2.6,1.51Z" transform="translate(-79.47 -90.99)"/><path class="cls-3" d="M441,132.49c7.26,6.69,17.74,8.54,27.13,10.29a166,166,0,0,0,33.82,2.79,164.26,164.26,0,0,0,32.76-4c7.8-1.75,15.83-4.44,20.09-11.7a1.5,1.5,0,0,0-2.59-1.51c-4.63,7.89-14.58,9.67-22.86,11.28a161.55,161.55,0,0,1-29.27,2.92,161.77,161.77,0,0,1-29.31-2.38c-9.29-1.62-20.47-3.24-27.64-9.85-1.42-1.31-3.55.81-2.13,2.12Z" transform="translate(-79.47 -90.99)"/><path class="cls-3" d="M319.61,240.67c7.55,10.94,22.12,15,34.33,18.18a164.54,164.54,0,0,0,42.65,5.42,166.52,166.52,0,0,0,83.78-22.9,1.5,1.5,0,0,0-1.51-2.59,163.86,163.86,0,0,1-119.34,18.37c-12.64-2.93-29.51-6.68-37.32-18-1.09-1.58-3.69-.08-2.59,1.52Z" transform="translate(-79.47 -90.99)"/><path class="cls-3" d="M319.16,303.79c48.9,29.88,109.59,21.85,157.45-5.84a1.5,1.5,0,0,0-1.52-2.59c-46.95,27.17-106.42,35.17-154.42,5.84-1.65-1-3.16,1.58-1.51,2.59Z" transform="translate(-79.47 -90.99)"/><path class="cls-3" d="M484.87,237.9c9.57-6.75,14.61-19.19,19.64-29.36a332.34,332.34,0,0,0,15.37-36.48c.64-1.82-2.26-2.6-2.9-.79a325,325,0,0,1-14.26,34.12c-4.87,10-10,23.32-19.36,29.92-1.57,1.1-.07,3.71,1.51,2.59Z" transform="translate(-79.47 -90.99)"/><path class="cls-3" d="M516.72,211.93c-2.65,14.75-7.28,29-12.75,42.9-2.92,7.44-6.06,14.79-9.23,22.12-2.71,6.31-5.36,13-11.52,16.71a1.5,1.5,0,0,0,1.51,2.59c5.63-3.38,8.65-8.82,11.26-14.67,3.05-6.85,5.95-13.79,8.78-20.73,6.35-15.6,11.86-31.52,14.84-48.12.34-1.89-2.55-2.7-2.89-.8Z" transform="translate(-79.47 -90.99)"/><path class="cls-3" d="M521,170a337.57,337.57,0,0,0,24.13-32.88,182.76,182.76,0,0,0,10-16.86c2.88-5.76,3.67-11.52,3.93-17.89.08-1.93-2.92-1.93-3,0-.29,7.13-1.58,13-5.09,19.27-3,5.28-6.18,10.43-9.48,15.51a329.93,329.93,0,0,1-22.66,30.73c-1.22,1.48.89,3.61,2.12,2.12Z" transform="translate(-79.47 -90.99)"/><path class="cls-3" d="M553.71,142.1c-2.3,25.06-13.46,49.88-34.53,64.56-1.57,1.09-.07,3.7,1.52,2.59,22-15.34,33.6-40.95,36-67.15.18-1.92-2.83-1.91-3,0Z" transform="translate(-79.47 -90.99)"/><path class="cls-13" d="M423.54,224.52s7.62-.73,6,2.42-6.39,10.65-17.29,8.23Z" transform="translate(-79.47 -90.99)"/><path class="cls-5" d="M423.54,224.52,412.3,235.17a14,14,0,0,0,4.58.47S424.38,228.63,423.54,224.52Z" transform="translate(-79.47 -90.99)"/><path class="cls-14" d="M370.67,194.68s14.5-12.85,32.66-4.15c0,0,16.82,7.6,18.75,17.89,0,0,2.79,9.68,1.46,16.1,0,0-4,12-20.09,12.22,0,0-11-.24-17.19-4.48,0,0-5.57,1.09-7.26.12,0,0-7.51,2.42-10.17,2.42s-9.92-1.69-3.51-3l3.27-.73a3.5,3.5,0,0,1-.61-1.93s-16.36-6.53-18.29-18.7Z" transform="translate(-79.47 -90.99)"/><path class="cls-5" d="M377.18,190.82a58.32,58.32,0,0,1-1.81,7.29c-.73,1.6-5.21,30.28-25.42,14Z" transform="translate(-79.47 -90.99)"/><path class="cls-14" d="M354.79,169.69s.49,8.11.49,9.8,1.81,6.81,1.33,7.64c0,0-.24,3.33-1.09,4,0,0-2.91,2-3.15,3.8a5.47,5.47,0,0,0,0,2.37s-3.87,7.38-3.87,8.83a8.56,8.56,0,0,0,2.09,5.47c1.42,1.31,1.9,2.76,4,2.4,0,0,4.84,4,11.62,0,0,0,8.71-6.61,5.32-19.12,0,0,7.27-4.86,7.87-7.06s6.54-7.76,5.69-11.51-5.08-.37-6.29,0a17.12,17.12,0,0,0-11,7.62s-2.42,2.86-2.54,3.61a5.73,5.73,0,0,0-2.66-.94s.72-8.48-.61-9.81-1-7.14-1-8.35" transform="translate(-79.47 -90.99)"/><path class="cls-5" d="M399.21,208.66s-10.41.19-13.43,7.12a29.67,29.67,0,0,0,.48,16.48s-1.85.33-2.8.41-2.08-15,0-17.84S391.59,206.6,399.21,208.66Z" transform="translate(-79.47 -90.99)"/><path class="cls-5" d="M378.64,215.78s-2.06,8.86-3.27,9.83c0,0,1.21,4,0,4.43,0,0,3.14,1.13,3.63,2.34a7.92,7.92,0,0,0-1.82-3.14v-3.51Z" transform="translate(-79.47 -90.99)"/><path class="cls-15" d="M369.2,193.64a32,32,0,0,0,.84-6.27c-.12-2.07,4-8.72,6.42-8.6s4.75-2.3,5.82-2.66,2.8,0,0,3.14c0,0-3.4,4.59-3.28,5.56s-2.18,3.59-3.63,3.79S372.58,193.37,369.2,193.64Z" transform="translate(-79.47 -90.99)"/><path class="cls-16" d="M365.32,198.13s-2.3-.24-2.78.85v2.55A2.76,2.76,0,0,0,365.32,198.13Z" transform="translate(-79.47 -90.99)"/><path class="cls-15" d="M355.52,209.15a2.62,2.62,0,0,1-3.33,1.09,2.36,2.36,0,0,1-1.75-2S351.58,214.17,355.52,209.15Z" transform="translate(-79.47 -90.99)"/><line class="cls-12" x1="270.84" y1="142.16" x2="270.15" y2="142.16"/><line class="cls-12" x1="275.23" y1="142.16" x2="274.54" y2="142.16"/><line class="cls-12" x1="279.62" y1="142.16" x2="278.93" y2="142.16"/><line class="cls-12" x1="284.01" y1="142.16" x2="283.32" y2="142.16"/><line class="cls-12" x1="290.6" y1="142.16" x2="289.91" y2="142.16"/><line class="cls-12" x1="294.99" y1="142.16" x2="294.3" y2="142.16"/><line class="cls-12" x1="299.38" y1="142.16" x2="298.7" y2="142.16"/><line class="cls-12" x1="303.77" y1="142.16" x2="303.09" y2="142.16"/><line class="cls-12" x1="308.17" y1="142.16" x2="307.48" y2="142.16"/><line class="cls-12" x1="312.56" y1="142.16" x2="311.87" y2="142.16"/><line class="cls-12" x1="316.95" y1="142.16" x2="316.26" y2="142.16"/><line class="cls-12" x1="321.34" y1="142.16" x2="320.66" y2="142.16"/><line class="cls-12" x1="325.73" y1="142.16" x2="325.05" y2="142.16"/><line class="cls-12" x1="330.13" y1="142.16" x2="329.44" y2="142.16"/><line class="cls-12" x1="334.52" y1="142.16" x2="333.83" y2="142.16"/><line class="cls-12" x1="343.3" y1="142.16" x2="342.62" y2="142.16"/><line class="cls-12" x1="347.69" y1="142.16" x2="347.01" y2="142.16"/><line class="cls-12" x1="352.08" y1="142.16" x2="351.4" y2="142.16"/><path class="cls-17" d="M264.24,296a8.23,8.23,0,0,1-2.21-.39,8,8,0,0,0-4.81-.45s-.91.19-5.85-1c0,0-7.48-2.21-16.71,1.88,0,0-6.24,3.32-4.62,10.41,0,0,.2,3.57.72,4.42a36.17,36.17,0,0,0,2.73,3.19c1,.26,8,.84,9.82,1s2.86.65,2.47,0c0,0,2.66.91,1.56-1.11,0,0,3.83.85,6.24,0,0,0,2.93.65,3.84.2s2.86,1,5.39.71c0,0,1.17.52,1.43-.19,0,0,2.8.32,2.41-.26a2.91,2.91,0,0,1-.46-1,4.07,4.07,0,0,0,1.56.45c.72,0,1.5-.06,1.5-.32a4.84,4.84,0,0,0-1.82-1.82c-.59-.2,2.73-2.35,3.19-3.26s2.08-2.08,1.95-2.86Z" transform="translate(-79.47 -90.99)"/><path class="cls-5" d="M263.86,296a6.41,6.41,0,0,1-1-.13s3.82,11.86,8.48,11.59c0,0,1.34-1.36,1.21-1.88Z" transform="translate(-79.47 -90.99)"/><path class="cls-17" d="M271.2,292.41s.21.58,1.37.71,3.05.72,3.57,1.43l4.1,7s-.26.78-.65.78a2.73,2.73,0,0,1-2.28,2.08s-1.43,1.49-2.79.58-1.92.21-1.95.52-.59.07-1.82-1.1-6.83-4.93-6.89-8.48c0,0,1.36-2.12,1.88-2.12,0,0-.78-3.51-1.3-4s-1.76-8.32.13-8.52a.76.76,0,0,1,.78.59s1.1-1.24,1.69-.59c0,0,2.53,2,3.06,4.36C270.1,285.71,271.27,291.63,271.2,292.41Z" transform="translate(-79.47 -90.99)"/><path class="cls-5" d="M251.17,307.17s1,1.17.33,2,3,2,4,2,2.54,2.34,1.89,2.93a6.86,6.86,0,0,1-3.84-.2s-4.49.52-6.24,0c0,0-1-1.95-1.56-1.95a29.76,29.76,0,0,1-3-.52v-1.24a7.13,7.13,0,0,0,2,.79c1,.19,3,1.1,3.12,1.75s5.91.07,5.39-.65a20.9,20.9,0,0,0-2.66-2.34C250.2,309.45,251.37,309.18,251.17,307.17Z" transform="translate(-79.47 -90.99)"/><path class="cls-18" d="M230.76,310.81s-1.37.85,0,2c0,0-.74-.07-.31.39s2.76.48,2.76.48Z" transform="translate(-79.47 -90.99)"/><path class="cls-5" d="M261.71,310.81s.65.94.52,1.44,2.6-.2,4,1.1c0,0-.06-1.37-3-1.63A15.22,15.22,0,0,0,261.71,310.81Z" transform="translate(-79.47 -90.99)"/><path class="cls-5" d="M267.43,311.66s-.86,1.2-1.92.74c0,0,.89.61.73,1,0,0,1.67-1.14,2-1S267.56,311.6,267.43,311.66Z" transform="translate(-79.47 -90.99)"/><path class="cls-5" d="M265.35,281.94s3.41,3.87,3.41,4.71c0,0,1.08,4.62.42,6.57a5.81,5.81,0,0,1,1.34-.39c.29,0-.52-7.41-1.47-8.16S265.58,281.71,265.35,281.94Z" transform="translate(-79.47 -90.99)"/><path class="cls-19" d="M264.41,281.92a38.75,38.75,0,0,1,1.75,3.6,29.3,29.3,0,0,0,.85,3.41,7.55,7.55,0,0,1,0,3.61,40.43,40.43,0,0,0-1.66-4C264.76,287.53,263.59,283.21,264.41,281.92Z" transform="translate(-79.47 -90.99)"/><path class="cls-19" d="M280,301.67a6.16,6.16,0,0,1-1.11-.42c-.13-.13-.1.9.29,1.11S279.39,301.45,280,301.67Z" transform="translate(-79.47 -90.99)"/><path class="cls-20" d="M273.8,295.79s-1.79-.49-2.11.33c0,0,0,1.41,1.69,1.27A1.31,1.31,0,0,0,273.8,295.79Z" transform="translate(-79.47 -90.99)"/><path class="cls-21" d="M223.43,314.29" transform="translate(-79.47 -90.99)"/><path class="cls-11" d="M242,314.87" transform="translate(-79.47 -90.99)"/><path class="cls-11" d="M242.78,311" transform="translate(-79.47 -90.99)"/><path class="cls-11" d="M240.41,313.61" transform="translate(-79.47 -90.99)"/><path class="cls-10" d="M272.14,313.44" transform="translate(-79.47 -90.99)"/><path class="cls-10" d="M272,312" transform="translate(-79.47 -90.99)"/><path class="cls-10" d="M271.49,310.44" transform="translate(-79.47 -90.99)"/><path class="cls-10" d="M274.38,306" transform="translate(-79.47 -90.99)"/><path class="cls-11" d="M271.79,309.58" transform="translate(-79.47 -90.99)"/><path class="cls-11" d="M268.25,308.75" transform="translate(-79.47 -90.99)"/><path class="cls-9" d="M262.71,315.84" transform="translate(-79.47 -90.99)"/><line class="cls-12" x1="144.09" y1="223.27" x2="144.09" y2="223.94"/><line class="cls-12" x1="147.96" y1="223.3" x2="147.33" y2="223.3"/><line class="cls-12" x1="151.96" y1="223.3" x2="151.33" y2="223.3"/><line class="cls-12" x1="155.96" y1="223.3" x2="155.33" y2="223.3"/><path class="cls-12" d="M239.43,314.29" transform="translate(-79.47 -90.99)"/><line class="cls-12" x1="163.96" y1="223.3" x2="163.33" y2="223.3"/><line class="cls-12" x1="167.96" y1="223.3" x2="167.33" y2="223.3"/><line class="cls-12" x1="171.96" y1="223.3" x2="171.33" y2="223.3"/><line class="cls-12" x1="175.96" y1="223.3" x2="175.33" y2="223.3"/><line class="cls-12" x1="179.96" y1="223.3" x2="179.33" y2="223.3"/><line class="cls-12" x1="183.96" y1="223.3" x2="183.33" y2="223.3"/><line class="cls-12" x1="187.96" y1="223.3" x2="187.33" y2="223.3"/><line class="cls-12" x1="191.96" y1="223.3" x2="191.33" y2="223.3"/></g></g></svg>