<svg id="Calque_1" data-name="Calque 1" xmlns="http://www.w3.org/2000/svg" viewBox="0 0 119.41 179"><defs><style>.cls-1{fill:#f29100;}.cls-2{fill:#f8b118;}.cls-3{fill:#fbf325;}.cls-4{fill:#f7b418;}.cls-5{fill:#6b3710;}.cls-6{fill:#e9ae6f;}.cls-7{fill:#bd8442;}.cls-8{fill:#edbe7d;}.cls-9{fill:#673611;}.cls-10{fill:#dfb178;}</style></defs><title>Feu de camp</title><g id="Feu_de_camp" data-name="Feu de camp"><path class="cls-1" d="M656.92,441.4s-6.73,1.1-9.48-24.69c-4.29,3.27-21.12-9-21.12-15.09V384.79s4.59,4.59,13.77,7.65c9.18,6.12,13.77,22.95,16.83,21.42S652.33,394,637,380.21c0-10.71,3.06-24.48,3.06-24.48l4.59,7.65s0-10.71-3.06-15.3,0-18.36,0-18.36,13.77-29.07,10.71-30.6,15.3,21.42,19.89,26a16.55,16.55,0,0,1,4.59,10.71l3.06,21.42v7.65s4.59-29.07,3.06-41.31c0-4.59,3.06-9.18,7.65-30.6,3.06,3.06,4.59,33.66,9.18,35.19s10.71,15.3,13.77,18.36,3.06-9.18,3.06-9.18,13.77,15.3,7.65,32.13c0,10.71-1.53,13.76-1.53,13.76s7.65-15.29,7.65-24.47,0-30.6,3.06-27.54-1.53,21.42,6.12,30.6a69,69,0,0,1,0,27.53l-15.3,24.48-10.1,17.31" transform="translate(-622.5 -293)"/><path class="cls-2" d="M657.37,433.89s-12.69-24.62-21.87-32.27c12.24,6.12,16.83,12.24,16.83,12.24l8.19.65S660,397,644.68,381.74l3.06-4.59,7.65,9.17s-6.12-29.06-3.06-29.06,6.12-16.83,4.59-19.89S673.75,368,673.75,368v5.35l6.88,9.85s2.3-30.5,5.36-30.5,7.65,21.42,12.24,21.42c0,3.06,0,13.76,3.06,15.29s1.53-13.76,1.53-13.76,9.18,10.7,9.18,13.76-1.53,16.83-1.53,16.83l12.24-13.77s3.06,15.3,0,18.36S724.24,423,724.24,423s-5.24,10.49-21.75,9.84" transform="translate(-622.5 -293)"/><path class="cls-3" d="M656.16,441.4s18.36,12.24,21.42-10.71l1.53-7.65,4.59-1.53L699,433.75l6.12-1.53s6.12-12.24,4.59-16.83l-3.06,1.53L699,403.15l-3.83,11.48s-4.59-16.83-6.12-16.83-1.53,13.77-6.12,12.24c-1.53-7.65,0-29.07-4.59-30.6l-9.18-12.24v33.66s-1.53,9.18-1.53,12.24c-1.53-10.71-6.12-24.48-7.65-24.48,0,6.12,0,30.6,1.53,32.13a2.12,2.12,0,0,1,0,3.06l-9.18-10.71S661.51,443.7,656.16,441.4Z" transform="translate(-622.5 -293)"/><path class="cls-4" d="M702.82,364.91s-4.59-3.06-4.59-23c6.12,6.12,10.71,7.65,4.59,26" transform="translate(-622.5 -293)"/><path class="cls-4" d="M652.33,328.19s9.18-9.18,6.12-13.77a118.76,118.76,0,0,1-6.12-10.71S647.74,325.13,652.33,328.19Z" transform="translate(-622.5 -293)"/><path class="cls-1" d="M623.26,342s-3,19.89,3.06,23S623.26,342,623.26,342Z" transform="translate(-622.5 -293)"/><path class="cls-1" d="M713.53,306.77s-7.65,10.71,0,21.42C718.12,323.6,722.71,319,713.53,306.77Z" transform="translate(-622.5 -293)"/><path class="cls-1" d="M733.42,412.33s-4.59-6.12,7.65-15.3C741.07,406.21,745.66,406.21,733.42,412.33Z" transform="translate(-622.5 -293)"/><path class="cls-5" d="M650.8,429.93l33.66-4.59,29.07,30.6s9.18,8.41,7.65,15.3c-.6,2.69-20.65-19.13-20.65-19.13l-12.24,1.53s-3.06,9.18-9.18,6.12a37.87,37.87,0,0,1-9.18-6.12l-11.34.1Z" transform="translate(-622.5 -293)"/><path class="cls-6" d="M646.21,411.57s-4.59,45.9,10.71,44.37c4.59-4.59,7.65-18.36-6.12-26A137.53,137.53,0,0,1,646.21,411.57Z" transform="translate(-622.5 -293)"/><polygon class="cls-7" points="61.96 133.1 61.96 123.92 68.08 123.92 104.8 157.58 91.03 163.7 61.96 133.1"/><path class="cls-8" d="M727.3,450.58,721.18,472s-10.71-4.59-7.65-16.83c9.18-4.59,13.77-4.59,13.77-4.59" transform="translate(-622.5 -293)"/><path class="cls-9" d="M698.23,424.57l29.07-3.06s15.3,13.77,0,24.48h-6.12Z" transform="translate(-622.5 -293)"/><polygon class="cls-10" points="63.49 160.64 72.67 168.29 83.38 165.23 77.26 157.58 63.49 157.58 63.49 160.64"/></g></svg>