<svg id="Calque_1" data-name="Calque 1" xmlns="http://www.w3.org/2000/svg" viewBox="0 0 174.69 127.31"><defs><style>.cls-1{fill:#895627;}.cls-2{fill:#fac776;}.cls-3{fill:#4f2b14;}.cls-4{fill:#714a21;}.cls-5{fill:none;stroke:#1e1d1d;stroke-miterlimit:10;stroke-width:0.5px;}.cls-6{fill:#73451b;}</style></defs><title>Petit tas bois</title><g id="Petit_tas_de_bois" data-name="Petit tas de bois"><g id="Bûche_de_bois" data-name="Bûche de bois"><path class="cls-1" d="M616.81,424l103.1-29.55s11.45-10.18,0-27.5h-3.13l-1-1s0-6.11-12.49-3.05-67.69,19.35-67.69,19.35l-1.56.51s-1,4.07-9.38,2c-5.2,2-20.82,7.13-20.82,7.13s-12.5,6.11-5.21,22.41S616.81,424,616.81,424Z" transform="translate(-596.31 -319)"/><ellipse class="cls-2" cx="629.67" cy="383.91" rx="4.99" ry="2.68" transform="translate(-647.4 -218.7) rotate(-8.75)"/><path class="cls-3" d="M617.86,419.9,723,390.2l-3.07,4.23L616.81,424S616.81,419.9,617.86,419.9Z" transform="translate(-596.31 -319)"/><path class="cls-4" d="M619.94,415.83l104.13-29.55c.67-.18.17,1.39,0,2l-1,2L618.9,419.9S618.9,415.83,619.94,415.83Z" transform="translate(-596.31 -319)"/><polygon class="cls-2" points="80.91 58.12 123.6 47.93 120.48 46.91 80.91 58.12"/><line class="cls-5" x1="79.86" y1="58.12" x2="120.48" y2="46.91"/><path class="cls-2" d="M616.81,423s14.58-13.25-4.16-29.54c-9.37-8.15-23.95,15.28-6.25,28.52a14.73,14.73,0,0,0,3.12,2c.35.16,1.05-7.14,1.05-7.14s-.42,7.07,0,7.14a14,14,0,0,0,5.2,0c-.52-1.53-3.64-9.68-3.64-9.68Z" transform="translate(-596.31 -319)"/><path class="cls-6" d="M622.22,385.66a10.49,10.49,0,0,0,2.76-2.12c.17-.31-.57,1.49.32,2.12s3.73,1.75,8-.34c.28-.11,2.87-1.56.46-3.35a5.36,5.36,0,0,0,3,0l-.15,3.3-8.33,2-6.25-1" transform="translate(-596.31 -319)"/></g><g id="Bûche_de_bois-2" data-name="Bûche de bois"><path class="cls-1" d="M633.81,397l103.1-29.55s11.45-10.18,0-27.5h-3.13l-1-1s0-6.11-12.49-3.05-67.69,19.35-67.69,19.35l-1.56.51s-1,4.07-9.38,2c-5.2,2-20.82,7.13-20.82,7.13s-12.5,6.11-5.21,22.41S633.81,397,633.81,397Z" transform="translate(-596.31 -319)"/><ellipse class="cls-2" cx="646.67" cy="356.91" rx="4.99" ry="2.68" transform="translate(-643.09 -216.43) rotate(-8.75)"/><path class="cls-3" d="M634.86,392.9,740,363.2l-3.07,4.23L633.81,397S633.81,392.9,634.86,392.9Z" transform="translate(-596.31 -319)"/><path class="cls-4" d="M636.94,388.83l104.13-29.55c.67-.18.17,1.39,0,2l-1,2L635.9,392.9S635.9,388.83,636.94,388.83Z" transform="translate(-596.31 -319)"/><polygon class="cls-2" points="97.91 31.12 140.6 20.93 137.48 19.91 97.91 31.12"/><line class="cls-5" x1="96.86" y1="31.12" x2="137.48" y2="19.91"/><path class="cls-2" d="M633.81,396s14.58-13.25-4.16-29.54c-9.37-8.15-23.95,15.28-6.25,28.52a14.73,14.73,0,0,0,3.12,2c.35.16,1.05-7.14,1.05-7.14s-.42,7.07,0,7.14a14,14,0,0,0,5.2,0c-.52-1.53-3.64-9.68-3.64-9.68Z" transform="translate(-596.31 -319)"/><path class="cls-6" d="M639.22,358.66a10.49,10.49,0,0,0,2.76-2.12c.17-.31-.57,1.49.32,2.12s3.73,1.75,8-.34c.28-.11,2.87-1.56.46-3.35a5.36,5.36,0,0,0,3,0l-.15,3.3-8.33,2-6.25-1" transform="translate(-596.31 -319)"/></g><g id="Bûche_de_bois-3" data-name="Bûche de bois"><path class="cls-1" d="M637.81,436l103.1-29.55s11.45-10.18,0-27.5h-3.13l-1-1s0-6.11-12.49-3.05-67.69,19.35-67.69,19.35l-1.56.51s-1,4.07-9.38,2c-5.2,2-20.82,7.13-20.82,7.13s-12.5,6.11-5.21,22.41S637.81,436,637.81,436Z" transform="translate(-596.31 -319)"/><ellipse class="cls-2" cx="650.67" cy="395.91" rx="4.99" ry="2.68" transform="translate(-648.98 -215.36) rotate(-8.75)"/><path class="cls-3" d="M638.86,431.9,744,402.2l-3.07,4.23L637.81,436S637.81,431.9,638.86,431.9Z" transform="translate(-596.31 -319)"/><path class="cls-4" d="M640.94,427.83l104.13-29.55c.67-.18.17,1.39,0,2l-1,2L639.9,431.9S639.9,427.83,640.94,427.83Z" transform="translate(-596.31 -319)"/><polygon class="cls-2" points="101.91 70.12 144.6 59.93 141.48 58.91 101.91 70.12"/><line class="cls-5" x1="100.86" y1="70.12" x2="141.48" y2="58.91"/><path class="cls-2" d="M637.81,435s14.58-13.25-4.16-29.54c-9.37-8.15-23.95,15.28-6.25,28.52a14.73,14.73,0,0,0,3.12,2c.35.16,1.05-7.14,1.05-7.14s-.42,7.07,0,7.14a14,14,0,0,0,5.2,0c-.52-1.53-3.64-9.68-3.64-9.68Z" transform="translate(-596.31 -319)"/><path class="cls-6" d="M643.22,397.66a10.49,10.49,0,0,0,2.76-2.12c.17-.31-.57,1.49.32,2.12s3.73,1.75,8-.34c.28-.11,2.87-1.56.46-3.35a5.36,5.36,0,0,0,3,0l-.15,3.3-8.33,2-6.25-1" transform="translate(-596.31 -319)"/></g><g id="Bûche_de_bois-4" data-name="Bûche de bois"><path class="cls-1" d="M662.81,445l103.1-29.55s11.45-10.18,0-27.5h-3.13l-1-1s0-6.11-12.49-3.05-67.69,19.35-67.69,19.35l-1.56.51s-1,4.07-9.38,2c-5.2,2-20.82,7.13-20.82,7.13s-12.5,6.11-5.21,22.41S662.81,445,662.81,445Z" transform="translate(-596.31 -319)"/><ellipse class="cls-2" cx="675.67" cy="404.91" rx="4.99" ry="2.68" transform="translate(-650.06 -211.45) rotate(-8.75)"/><path class="cls-3" d="M663.86,440.9,769,411.2l-3.07,4.23L662.81,445S662.81,440.9,663.86,440.9Z" transform="translate(-596.31 -319)"/><path class="cls-4" d="M665.94,436.83l104.13-29.55c.67-.18.17,1.39,0,2l-1,2L664.9,440.9S664.9,436.83,665.94,436.83Z" transform="translate(-596.31 -319)"/><polygon class="cls-2" points="126.91 79.12 169.6 68.93 166.48 67.91 126.91 79.12"/><line class="cls-5" x1="125.86" y1="79.12" x2="166.48" y2="67.91"/><path class="cls-2" d="M662.81,444s14.58-13.25-4.16-29.54c-9.37-8.15-23.95,15.28-6.25,28.52a14.73,14.73,0,0,0,3.12,2c.35.16,1.05-7.14,1.05-7.14s-.42,7.07,0,7.14a14,14,0,0,0,5.2,0c-.52-1.53-3.64-9.68-3.64-9.68Z" transform="translate(-596.31 -319)"/><path class="cls-6" d="M668.22,406.66a10.49,10.49,0,0,0,2.76-2.12c.17-.31-.57,1.49.32,2.12s3.73,1.75,8-.34c.28-.11,2.87-1.56.46-3.35a5.36,5.36,0,0,0,3,0l-.15,3.3-8.33,2-6.25-1" transform="translate(-596.31 -319)"/></g><g id="Bûche_de_bois-5" data-name="Bûche de bois"><path class="cls-1" d="M657.81,413l103.1-29.55s11.45-10.18,0-27.5h-3.13l-1-1s0-6.11-12.49-3.05-67.69,19.35-67.69,19.35l-1.56.51s-1,4.07-9.38,2c-5.2,2-20.82,7.13-20.82,7.13s-12.5,6.11-5.21,22.41S657.81,413,657.81,413Z" transform="translate(-596.31 -319)"/><ellipse class="cls-2" cx="670.67" cy="372.91" rx="4.99" ry="2.68" transform="translate(-645.25 -212.59) rotate(-8.75)"/><path class="cls-3" d="M658.86,408.9,764,379.2l-3.07,4.23L657.81,413S657.81,408.9,658.86,408.9Z" transform="translate(-596.31 -319)"/><path class="cls-4" d="M660.94,404.83l104.13-29.55c.67-.18.17,1.39,0,2l-1,2L659.9,408.9S659.9,404.83,660.94,404.83Z" transform="translate(-596.31 -319)"/><polygon class="cls-2" points="121.91 47.12 164.6 36.93 161.48 35.91 121.91 47.12"/><line class="cls-5" x1="120.86" y1="47.12" x2="161.48" y2="35.91"/><path class="cls-2" d="M657.81,412s14.58-13.25-4.16-29.54c-9.37-8.15-23.95,15.28-6.25,28.52a14.73,14.73,0,0,0,3.12,2c.35.16,1.05-7.14,1.05-7.14s-.42,7.07,0,7.14a14,14,0,0,0,5.2,0c-.52-1.53-3.64-9.68-3.64-9.68Z" transform="translate(-596.31 -319)"/><path class="cls-6" d="M663.22,374.66a10.49,10.49,0,0,0,2.76-2.12c.17-.31-.57,1.49.32,2.12s3.73,1.75,8-.34c.28-.11,2.87-1.56.46-3.35a5.36,5.36,0,0,0,3,0l-.15,3.3-8.33,2-6.25-1" transform="translate(-596.31 -319)"/></g><g id="Bûche_de_bois-6" data-name="Bûche de bois"><path class="cls-1" d="M646.81,381l103.1-29.55s11.45-10.18,0-27.5h-3.13l-1-1s0-6.11-12.49-3.05-67.69,19.35-67.69,19.35l-1.56.51s-1,4.07-9.38,2c-5.2,2-20.82,7.13-20.82,7.13s-12.5,6.11-5.21,22.41S646.81,381,646.81,381Z" transform="translate(-596.31 -319)"/><ellipse class="cls-2" cx="659.67" cy="340.91" rx="4.99" ry="2.68" transform="translate(-640.51 -214.63) rotate(-8.75)"/><path class="cls-3" d="M647.86,376.9,753,347.2l-3.07,4.23L646.81,381S646.81,376.9,647.86,376.9Z" transform="translate(-596.31 -319)"/><path class="cls-4" d="M649.94,372.83l104.13-29.55c.67-.18.17,1.39,0,2l-1,2L648.9,376.9S648.9,372.83,649.94,372.83Z" transform="translate(-596.31 -319)"/><polygon class="cls-2" points="110.91 15.12 153.6 4.93 150.48 3.91 110.91 15.12"/><line class="cls-5" x1="109.86" y1="15.12" x2="150.48" y2="3.91"/><path class="cls-2" d="M646.81,380s14.58-13.25-4.16-29.54c-9.37-8.15-23.95,15.28-6.25,28.52a14.73,14.73,0,0,0,3.12,2c.35.16,1.05-7.14,1.05-7.14s-.42,7.07,0,7.14a14,14,0,0,0,5.2,0c-.52-1.53-3.64-9.68-3.64-9.68Z" transform="translate(-596.31 -319)"/><path class="cls-6" d="M652.22,342.66a10.49,10.49,0,0,0,2.76-2.12c.17-.31-.57,1.49.32,2.12s3.73,1.75,8-.34c.28-.11,2.87-1.56.46-3.35a5.36,5.36,0,0,0,3,0l-.15,3.3-8.33,2-6.25-1" transform="translate(-596.31 -319)"/></g></g></svg>