<svg id="Calque_1" data-name="Calque 1" xmlns="http://www.w3.org/2000/svg" viewBox="0 0 150.49 201.3"><defs><style>.cls-1{fill:#80502c;}.cls-2{fill:#956034;}.cls-3{fill:#ab8d67;}.cls-4{fill:#282a27;}</style></defs><title>Pioche</title><g id="Pioche"><polygon class="cls-1" points="104.58 40.88 17.08 201.3 14.19 200.24 104.58 40.88"/><polygon class="cls-2" points="14.23 200.38 1.53 193.14 94.13 35.09 104.62 41.02 14.23 200.38"/><polygon class="cls-3" points="95.7 36.01 92.77 33.07 0 192.18 3.11 194.05 95.7 36.01"/><path class="cls-4" d="M758.39,333.67l-12.1,15.89L715.9,323.41l-5.64,4.47s-15.07-5.49-15.48-10.39a19.28,19.28,0,0,0-2.6-8.24l-61.86-25.79s56.35,7.9,72.43,17.42S758.39,333.67,758.39,333.67Z" transform="translate(-607.89 -283.46)"/><polygon class="cls-2" points="113.13 25.88 112.01 28.71 94.27 18.74 95.38 15.87 113.13 25.88"/></g></svg>